<mxfile host="65bd71144e">
    <diagram name="PÃ¡gina-1" id="am4MDc6Or0WjBNdkSLBn">
        <mxGraphModel dx="4380" dy="3630" grid="0" gridSize="10" guides="1" tooltips="1" connect="1" arrows="1" fold="1" page="1" pageScale="1" pageWidth="827" pageHeight="1169" background="#FFFFFF" math="0" shadow="0">
            <root>
                <mxCell id="0"/>
                <mxCell id="1" parent="0"/>
                <mxCell id="YT2RuRJ8nAbgr_poYTAT-1" value="ILeague" style="swimlane;fontStyle=1;align=center;verticalAlign=top;childLayout=stackLayout;horizontal=1;startSize=47.2;horizontalStack=0;resizeParent=1;resizeParentMax=0;resizeLast=0;collapsible=0;marginBottom=0;sketch=1;curveFitting=1;jiggle=2;" parent="1" vertex="1">
                    <mxGeometry x="1947" y="777" width="200" height="102.2" as="geometry"/>
                </mxCell>
                <mxCell id="YT2RuRJ8nAbgr_poYTAT-2" style="line;strokeWidth=1;fillColor=none;align=left;verticalAlign=middle;spacingTop=-1;spacingLeft=3;spacingRight=3;rotatable=0;labelPosition=right;points=[];portConstraint=eastwest;strokeColor=inherit;sketch=1;curveFitting=1;jiggle=2;" parent="YT2RuRJ8nAbgr_poYTAT-1" vertex="1">
                    <mxGeometry y="47.2" width="200" height="8" as="geometry"/>
                </mxCell>
                <mxCell id="YT2RuRJ8nAbgr_poYTAT-3" value="+getClubs() : :Club[]" style="text;strokeColor=none;fillColor=none;align=left;verticalAlign=top;spacingLeft=4;spacingRight=4;overflow=hidden;rotatable=0;points=[[0,0.5],[1,0.5]];portConstraint=eastwest;sketch=1;curveFitting=1;jiggle=2;" parent="YT2RuRJ8nAbgr_poYTAT-1" vertex="1">
                    <mxGeometry y="55.2" width="200" height="47" as="geometry"/>
                </mxCell>
                <mxCell id="YT2RuRJ8nAbgr_poYTAT-4" value="ISchedule" style="swimlane;fontStyle=1;align=center;verticalAlign=top;childLayout=stackLayout;horizontal=1;startSize=47.2;horizontalStack=0;resizeParent=1;resizeParentMax=0;resizeLast=0;collapsible=0;marginBottom=0;sketch=1;curveFitting=1;jiggle=2;" parent="1" vertex="1">
                    <mxGeometry x="4319" y="777" width="237" height="102.2" as="geometry"/>
                </mxCell>
                <mxCell id="YT2RuRJ8nAbgr_poYTAT-5" style="line;strokeWidth=1;fillColor=none;align=left;verticalAlign=middle;spacingTop=-1;spacingLeft=3;spacingRight=3;rotatable=0;labelPosition=right;points=[];portConstraint=eastwest;strokeColor=inherit;sketch=1;curveFitting=1;jiggle=2;" parent="YT2RuRJ8nAbgr_poYTAT-4" vertex="1">
                    <mxGeometry y="47.2" width="237" height="8" as="geometry"/>
                </mxCell>
                <mxCell id="YT2RuRJ8nAbgr_poYTAT-6" value="+getMatches() : :Match[]" style="text;strokeColor=none;fillColor=none;align=left;verticalAlign=top;spacingLeft=4;spacingRight=4;overflow=hidden;rotatable=0;points=[[0,0.5],[1,0.5]];portConstraint=eastwest;sketch=1;curveFitting=1;jiggle=2;" parent="YT2RuRJ8nAbgr_poYTAT-4" vertex="1">
                    <mxGeometry y="55.2" width="237" height="47" as="geometry"/>
                </mxCell>
                <mxCell id="YT2RuRJ8nAbgr_poYTAT-7" value="ISeason" style="swimlane;fontStyle=1;align=center;verticalAlign=top;childLayout=stackLayout;horizontal=1;startSize=31.733333333333334;horizontalStack=0;resizeParent=1;resizeParentMax=0;resizeLast=0;collapsible=0;marginBottom=0;sketch=1;curveFitting=1;jiggle=2;" parent="1" vertex="1">
                    <mxGeometry x="4007" y="717" width="262" height="231.73333333333335" as="geometry"/>
                </mxCell>
                <mxCell id="YT2RuRJ8nAbgr_poYTAT-8" style="line;strokeWidth=1;fillColor=none;align=left;verticalAlign=middle;spacingTop=-1;spacingLeft=3;spacingRight=3;rotatable=0;labelPosition=right;points=[];portConstraint=eastwest;strokeColor=inherit;sketch=1;curveFitting=1;jiggle=2;" parent="YT2RuRJ8nAbgr_poYTAT-7" vertex="1">
                    <mxGeometry y="31.733333333333334" width="262" height="8" as="geometry"/>
                </mxCell>
                <mxCell id="YT2RuRJ8nAbgr_poYTAT-9" value="+getYear() : :int" style="text;strokeColor=none;fillColor=none;align=left;verticalAlign=top;spacingLeft=4;spacingRight=4;overflow=hidden;rotatable=0;points=[[0,0.5],[1,0.5]];portConstraint=eastwest;sketch=1;curveFitting=1;jiggle=2;" parent="YT2RuRJ8nAbgr_poYTAT-7" vertex="1">
                    <mxGeometry y="39.733333333333334" width="262" height="32" as="geometry"/>
                </mxCell>
                <mxCell id="YT2RuRJ8nAbgr_poYTAT-10" value="+getSchedule() : :ISchedule" style="text;strokeColor=none;fillColor=none;align=left;verticalAlign=top;spacingLeft=4;spacingRight=4;overflow=hidden;rotatable=0;points=[[0,0.5],[1,0.5]];portConstraint=eastwest;sketch=1;curveFitting=1;jiggle=2;" parent="YT2RuRJ8nAbgr_poYTAT-7" vertex="1">
                    <mxGeometry y="71.73333333333333" width="262" height="32" as="geometry"/>
                </mxCell>
                <mxCell id="YT2RuRJ8nAbgr_poYTAT-11" value="+getStandings() : :IStanding[]" style="text;strokeColor=none;fillColor=none;align=left;verticalAlign=top;spacingLeft=4;spacingRight=4;overflow=hidden;rotatable=0;points=[[0,0.5],[1,0.5]];portConstraint=eastwest;sketch=1;curveFitting=1;jiggle=2;" parent="YT2RuRJ8nAbgr_poYTAT-7" vertex="1">
                    <mxGeometry y="103.73333333333333" width="262" height="32" as="geometry"/>
                </mxCell>
                <mxCell id="YT2RuRJ8nAbgr_poYTAT-12" value="+getPointsPerWin() : :int" style="text;strokeColor=none;fillColor=none;align=left;verticalAlign=top;spacingLeft=4;spacingRight=4;overflow=hidden;rotatable=0;points=[[0,0.5],[1,0.5]];portConstraint=eastwest;sketch=1;curveFitting=1;jiggle=2;" parent="YT2RuRJ8nAbgr_poYTAT-7" vertex="1">
                    <mxGeometry y="135.73333333333335" width="262" height="32" as="geometry"/>
                </mxCell>
                <mxCell id="YT2RuRJ8nAbgr_poYTAT-13" value="+getPointsPerDraw() : :int" style="text;strokeColor=none;fillColor=none;align=left;verticalAlign=top;spacingLeft=4;spacingRight=4;overflow=hidden;rotatable=0;points=[[0,0.5],[1,0.5]];portConstraint=eastwest;sketch=1;curveFitting=1;jiggle=2;" parent="YT2RuRJ8nAbgr_poYTAT-7" vertex="1">
                    <mxGeometry y="167.73333333333335" width="262" height="32" as="geometry"/>
                </mxCell>
                <mxCell id="YT2RuRJ8nAbgr_poYTAT-14" value="+getPointsPerLoss() : :int" style="text;strokeColor=none;fillColor=none;align=left;verticalAlign=top;spacingLeft=4;spacingRight=4;overflow=hidden;rotatable=0;points=[[0,0.5],[1,0.5]];portConstraint=eastwest;sketch=1;curveFitting=1;jiggle=2;" parent="YT2RuRJ8nAbgr_poYTAT-7" vertex="1">
                    <mxGeometry y="199.73333333333335" width="262" height="32" as="geometry"/>
                </mxCell>
                <mxCell id="YT2RuRJ8nAbgr_poYTAT-15" value="IStanding" style="swimlane;fontStyle=1;align=center;verticalAlign=top;childLayout=stackLayout;horizontal=1;startSize=40.57142857142857;horizontalStack=0;resizeParent=1;resizeParentMax=0;resizeLast=0;collapsible=0;marginBottom=0;sketch=1;curveFitting=1;jiggle=2;" parent="1" vertex="1">
                    <mxGeometry x="4606" y="765" width="187" height="130.57142857142856" as="geometry"/>
                </mxCell>
                <mxCell id="YT2RuRJ8nAbgr_poYTAT-16" style="line;strokeWidth=1;fillColor=none;align=left;verticalAlign=middle;spacingTop=-1;spacingLeft=3;spacingRight=3;rotatable=0;labelPosition=right;points=[];portConstraint=eastwest;strokeColor=inherit;sketch=1;curveFitting=1;jiggle=2;" parent="YT2RuRJ8nAbgr_poYTAT-15" vertex="1">
                    <mxGeometry y="40.57142857142857" width="187" height="8" as="geometry"/>
                </mxCell>
                <mxCell id="YT2RuRJ8nAbgr_poYTAT-17" value="+getClub() : :Club" style="text;strokeColor=none;fillColor=none;align=left;verticalAlign=top;spacingLeft=4;spacingRight=4;overflow=hidden;rotatable=0;points=[[0,0.5],[1,0.5]];portConstraint=eastwest;sketch=1;curveFitting=1;jiggle=2;" parent="YT2RuRJ8nAbgr_poYTAT-15" vertex="1">
                    <mxGeometry y="48.57142857142857" width="187" height="41" as="geometry"/>
                </mxCell>
                <mxCell id="YT2RuRJ8nAbgr_poYTAT-18" value="+getPoints() : :int" style="text;strokeColor=none;fillColor=none;align=left;verticalAlign=top;spacingLeft=4;spacingRight=4;overflow=hidden;rotatable=0;points=[[0,0.5],[1,0.5]];portConstraint=eastwest;sketch=1;curveFitting=1;jiggle=2;" parent="YT2RuRJ8nAbgr_poYTAT-15" vertex="1">
                    <mxGeometry y="89.57142857142857" width="187" height="41" as="geometry"/>
                </mxCell>
                <mxCell id="YT2RuRJ8nAbgr_poYTAT-19" value="IMatch" style="swimlane;fontStyle=1;align=center;verticalAlign=top;childLayout=stackLayout;horizontal=1;startSize=34.54545454545455;horizontalStack=0;resizeParent=1;resizeParentMax=0;resizeLast=0;collapsible=0;marginBottom=0;sketch=1;curveFitting=1;jiggle=2;" parent="1" vertex="1">
                    <mxGeometry x="2344" y="741" width="217" height="182.54545454545456" as="geometry"/>
                </mxCell>
                <mxCell id="YT2RuRJ8nAbgr_poYTAT-20" style="line;strokeWidth=1;fillColor=none;align=left;verticalAlign=middle;spacingTop=-1;spacingLeft=3;spacingRight=3;rotatable=0;labelPosition=right;points=[];portConstraint=eastwest;strokeColor=inherit;sketch=1;curveFitting=1;jiggle=2;" parent="YT2RuRJ8nAbgr_poYTAT-19" vertex="1">
                    <mxGeometry y="34.54545454545455" width="217" height="8" as="geometry"/>
                </mxCell>
                <mxCell id="YT2RuRJ8nAbgr_poYTAT-21" value="+getHome() : :Club" style="text;strokeColor=none;fillColor=none;align=left;verticalAlign=top;spacingLeft=4;spacingRight=4;overflow=hidden;rotatable=0;points=[[0,0.5],[1,0.5]];portConstraint=eastwest;sketch=1;curveFitting=1;jiggle=2;" parent="YT2RuRJ8nAbgr_poYTAT-19" vertex="1">
                    <mxGeometry y="42.54545454545455" width="217" height="35" as="geometry"/>
                </mxCell>
                <mxCell id="YT2RuRJ8nAbgr_poYTAT-22" value="+getAway() : :Club" style="text;strokeColor=none;fillColor=none;align=left;verticalAlign=top;spacingLeft=4;spacingRight=4;overflow=hidden;rotatable=0;points=[[0,0.5],[1,0.5]];portConstraint=eastwest;sketch=1;curveFitting=1;jiggle=2;" parent="YT2RuRJ8nAbgr_poYTAT-19" vertex="1">
                    <mxGeometry y="77.54545454545455" width="217" height="35" as="geometry"/>
                </mxCell>
                <mxCell id="YT2RuRJ8nAbgr_poYTAT-23" value="+getDate() : :LocalDate" style="text;strokeColor=none;fillColor=none;align=left;verticalAlign=top;spacingLeft=4;spacingRight=4;overflow=hidden;rotatable=0;points=[[0,0.5],[1,0.5]];portConstraint=eastwest;sketch=1;curveFitting=1;jiggle=2;" parent="YT2RuRJ8nAbgr_poYTAT-19" vertex="1">
                    <mxGeometry y="112.54545454545455" width="217" height="35" as="geometry"/>
                </mxCell>
                <mxCell id="YT2RuRJ8nAbgr_poYTAT-24" value="+getEvents() : :IEvent[]" style="text;strokeColor=none;fillColor=none;align=left;verticalAlign=top;spacingLeft=4;spacingRight=4;overflow=hidden;rotatable=0;points=[[0,0.5],[1,0.5]];portConstraint=eastwest;sketch=1;curveFitting=1;jiggle=2;" parent="YT2RuRJ8nAbgr_poYTAT-19" vertex="1">
                    <mxGeometry y="147.54545454545456" width="217" height="35" as="geometry"/>
                </mxCell>
                <mxCell id="YT2RuRJ8nAbgr_poYTAT-25" value="IPlayer" style="swimlane;fontStyle=1;align=center;verticalAlign=top;childLayout=stackLayout;horizontal=1;startSize=36.888888888888886;horizontalStack=0;resizeParent=1;resizeParentMax=0;resizeLast=0;collapsible=0;marginBottom=0;sketch=1;curveFitting=1;jiggle=2;" parent="1" vertex="1">
                    <mxGeometry x="4843" y="753" width="314" height="155.88888888888889" as="geometry"/>
                </mxCell>
                <mxCell id="YT2RuRJ8nAbgr_poYTAT-26" style="line;strokeWidth=1;fillColor=none;align=left;verticalAlign=middle;spacingTop=-1;spacingLeft=3;spacingRight=3;rotatable=0;labelPosition=right;points=[];portConstraint=eastwest;strokeColor=inherit;sketch=1;curveFitting=1;jiggle=2;" parent="YT2RuRJ8nAbgr_poYTAT-25" vertex="1">
                    <mxGeometry y="36.888888888888886" width="314" height="8" as="geometry"/>
                </mxCell>
                <mxCell id="YT2RuRJ8nAbgr_poYTAT-27" value="+getName() : :String" style="text;strokeColor=none;fillColor=none;align=left;verticalAlign=top;spacingLeft=4;spacingRight=4;overflow=hidden;rotatable=0;points=[[0,0.5],[1,0.5]];portConstraint=eastwest;sketch=1;curveFitting=1;jiggle=2;" parent="YT2RuRJ8nAbgr_poYTAT-25" vertex="1">
                    <mxGeometry y="44.888888888888886" width="314" height="37" as="geometry"/>
                </mxCell>
                <mxCell id="YT2RuRJ8nAbgr_poYTAT-28" value="+getPosition() : :IPlayerPosition" style="text;strokeColor=none;fillColor=none;align=left;verticalAlign=top;spacingLeft=4;spacingRight=4;overflow=hidden;rotatable=0;points=[[0,0.5],[1,0.5]];portConstraint=eastwest;sketch=1;curveFitting=1;jiggle=2;" parent="YT2RuRJ8nAbgr_poYTAT-25" vertex="1">
                    <mxGeometry y="81.88888888888889" width="314" height="37" as="geometry"/>
                </mxCell>
                <mxCell id="YT2RuRJ8nAbgr_poYTAT-29" value="+getPreferredFoot() : :PreferredFoot" style="text;strokeColor=none;fillColor=none;align=left;verticalAlign=top;spacingLeft=4;spacingRight=4;overflow=hidden;rotatable=0;points=[[0,0.5],[1,0.5]];portConstraint=eastwest;sketch=1;curveFitting=1;jiggle=2;" parent="YT2RuRJ8nAbgr_poYTAT-25" vertex="1">
                    <mxGeometry y="118.88888888888889" width="314" height="37" as="geometry"/>
                </mxCell>
                <mxCell id="YT2RuRJ8nAbgr_poYTAT-30" value="IPlayerPosition" style="swimlane;fontStyle=1;align=center;verticalAlign=top;childLayout=stackLayout;horizontal=1;startSize=38;horizontalStack=0;resizeParent=1;resizeParentMax=0;resizeLast=0;collapsible=0;marginBottom=0;sketch=1;curveFitting=1;jiggle=2;" parent="1" vertex="1">
                    <mxGeometry x="20" y="86" width="135" height="57" as="geometry"/>
                </mxCell>
                <mxCell id="YT2RuRJ8nAbgr_poYTAT-31" style="line;strokeWidth=1;fillColor=none;align=left;verticalAlign=middle;spacingTop=-1;spacingLeft=3;spacingRight=3;rotatable=0;labelPosition=right;points=[];portConstraint=eastwest;strokeColor=inherit;sketch=1;curveFitting=1;jiggle=2;" parent="YT2RuRJ8nAbgr_poYTAT-30" vertex="1">
                    <mxGeometry y="38" width="135" height="19" as="geometry"/>
                </mxCell>
                <mxCell id="YT2RuRJ8nAbgr_poYTAT-32" value="PreferredFoot" style="swimlane;fontStyle=1;align=center;verticalAlign=top;childLayout=stackLayout;horizontal=1;startSize=38;horizontalStack=0;resizeParent=1;resizeParentMax=0;resizeLast=0;collapsible=0;marginBottom=0;sketch=1;curveFitting=1;jiggle=2;" parent="1" vertex="1">
                    <mxGeometry x="205" y="86" width="130" height="57" as="geometry"/>
                </mxCell>
                <mxCell id="YT2RuRJ8nAbgr_poYTAT-33" style="line;strokeWidth=1;fillColor=none;align=left;verticalAlign=middle;spacingTop=-1;spacingLeft=3;spacingRight=3;rotatable=0;labelPosition=right;points=[];portConstraint=eastwest;strokeColor=inherit;sketch=1;curveFitting=1;jiggle=2;" parent="YT2RuRJ8nAbgr_poYTAT-32" vertex="1">
                    <mxGeometry y="38" width="130" height="19" as="geometry"/>
                </mxCell>
                <mxCell id="YT2RuRJ8nAbgr_poYTAT-34" value="IClub" style="swimlane;fontStyle=1;align=center;verticalAlign=top;childLayout=stackLayout;horizontal=1;startSize=40.57142857142857;horizontalStack=0;resizeParent=1;resizeParentMax=0;resizeLast=0;collapsible=0;marginBottom=0;sketch=1;curveFitting=1;jiggle=2;" parent="1" vertex="1">
                    <mxGeometry x="3370" y="765" width="220" height="130.57142857142856" as="geometry"/>
                </mxCell>
                <mxCell id="YT2RuRJ8nAbgr_poYTAT-35" style="line;strokeWidth=1;fillColor=none;align=left;verticalAlign=middle;spacingTop=-1;spacingLeft=3;spacingRight=3;rotatable=0;labelPosition=right;points=[];portConstraint=eastwest;strokeColor=inherit;sketch=1;curveFitting=1;jiggle=2;" parent="YT2RuRJ8nAbgr_poYTAT-34" vertex="1">
                    <mxGeometry y="40.57142857142857" width="220" height="8" as="geometry"/>
                </mxCell>
                <mxCell id="YT2RuRJ8nAbgr_poYTAT-36" value="+getName() : :String" style="text;strokeColor=none;fillColor=none;align=left;verticalAlign=top;spacingLeft=4;spacingRight=4;overflow=hidden;rotatable=0;points=[[0,0.5],[1,0.5]];portConstraint=eastwest;sketch=1;curveFitting=1;jiggle=2;" parent="YT2RuRJ8nAbgr_poYTAT-34" vertex="1">
                    <mxGeometry y="48.57142857142857" width="220" height="41" as="geometry"/>
                </mxCell>
                <mxCell id="YT2RuRJ8nAbgr_poYTAT-37" value="+getPlayers() : :IPlayer[]" style="text;strokeColor=none;fillColor=none;align=left;verticalAlign=top;spacingLeft=4;spacingRight=4;overflow=hidden;rotatable=0;points=[[0,0.5],[1,0.5]];portConstraint=eastwest;sketch=1;curveFitting=1;jiggle=2;" parent="YT2RuRJ8nAbgr_poYTAT-34" vertex="1">
                    <mxGeometry y="89.57142857142857" width="220" height="41" as="geometry"/>
                </mxCell>
                <mxCell id="YT2RuRJ8nAbgr_poYTAT-38" value="IFormation" style="swimlane;fontStyle=1;align=center;verticalAlign=top;childLayout=stackLayout;horizontal=1;startSize=40.57142857142857;horizontalStack=0;resizeParent=1;resizeParentMax=0;resizeLast=0;collapsible=0;marginBottom=0;sketch=1;curveFitting=1;jiggle=2;" parent="1" vertex="1">
                    <mxGeometry x="539" y="391" width="211" height="130.57142857142856" as="geometry"/>
                </mxCell>
                <mxCell id="YT2RuRJ8nAbgr_poYTAT-39" style="line;strokeWidth=1;fillColor=none;align=left;verticalAlign=middle;spacingTop=-1;spacingLeft=3;spacingRight=3;rotatable=0;labelPosition=right;points=[];portConstraint=eastwest;strokeColor=inherit;sketch=1;curveFitting=1;jiggle=2;" parent="YT2RuRJ8nAbgr_poYTAT-38" vertex="1">
                    <mxGeometry y="40.57142857142857" width="211" height="8" as="geometry"/>
                </mxCell>
                <mxCell id="YT2RuRJ8nAbgr_poYTAT-40" value="+getName() : :String" style="text;strokeColor=none;fillColor=none;align=left;verticalAlign=top;spacingLeft=4;spacingRight=4;overflow=hidden;rotatable=0;points=[[0,0.5],[1,0.5]];portConstraint=eastwest;sketch=1;curveFitting=1;jiggle=2;" parent="YT2RuRJ8nAbgr_poYTAT-38" vertex="1">
                    <mxGeometry y="48.57142857142857" width="211" height="41" as="geometry"/>
                </mxCell>
                <mxCell id="YT2RuRJ8nAbgr_poYTAT-41" value="+getSlots() : :Map" style="text;strokeColor=none;fillColor=none;align=left;verticalAlign=top;spacingLeft=4;spacingRight=4;overflow=hidden;rotatable=0;points=[[0,0.5],[1,0.5]];portConstraint=eastwest;sketch=1;curveFitting=1;jiggle=2;" parent="YT2RuRJ8nAbgr_poYTAT-38" vertex="1">
                    <mxGeometry y="89.57142857142857" width="211" height="41" as="geometry"/>
                </mxCell>
                <mxCell id="YT2RuRJ8nAbgr_poYTAT-42" value="IPlayerSelector" style="swimlane;fontStyle=1;align=center;verticalAlign=top;childLayout=stackLayout;horizontal=1;startSize=47.2;horizontalStack=0;resizeParent=1;resizeParentMax=0;resizeLast=0;collapsible=0;marginBottom=0;sketch=1;curveFitting=1;jiggle=2;" parent="1" vertex="1">
                    <mxGeometry x="2949" y="1034" width="332" height="102.2" as="geometry"/>
                </mxCell>
                <mxCell id="YT2RuRJ8nAbgr_poYTAT-43" style="line;strokeWidth=1;fillColor=none;align=left;verticalAlign=middle;spacingTop=-1;spacingLeft=3;spacingRight=3;rotatable=0;labelPosition=right;points=[];portConstraint=eastwest;strokeColor=inherit;sketch=1;curveFitting=1;jiggle=2;" parent="YT2RuRJ8nAbgr_poYTAT-42" vertex="1">
                    <mxGeometry y="47.2" width="332" height="8" as="geometry"/>
                </mxCell>
                <mxCell id="YT2RuRJ8nAbgr_poYTAT-44" value="+selectStartingXI(IClub) : :IPlayer[]" style="text;strokeColor=none;fillColor=none;align=left;verticalAlign=top;spacingLeft=4;spacingRight=4;overflow=hidden;rotatable=0;points=[[0,0.5],[1,0.5]];portConstraint=eastwest;sketch=1;curveFitting=1;jiggle=2;" parent="YT2RuRJ8nAbgr_poYTAT-42" vertex="1">
                    <mxGeometry y="55.2" width="332" height="47" as="geometry"/>
                </mxCell>
                <mxCell id="YT2RuRJ8nAbgr_poYTAT-45" value="IEvent" style="swimlane;fontStyle=1;align=center;verticalAlign=top;childLayout=stackLayout;horizontal=1;startSize=36.888888888888886;horizontalStack=0;resizeParent=1;resizeParentMax=0;resizeLast=0;collapsible=0;marginBottom=0;sketch=1;curveFitting=1;jiggle=2;" parent="1" vertex="1">
                    <mxGeometry x="2621" y="753" width="238" height="155.88888888888889" as="geometry"/>
                </mxCell>
                <mxCell id="YT2RuRJ8nAbgr_poYTAT-46" style="line;strokeWidth=1;fillColor=none;align=left;verticalAlign=middle;spacingTop=-1;spacingLeft=3;spacingRight=3;rotatable=0;labelPosition=right;points=[];portConstraint=eastwest;strokeColor=inherit;sketch=1;curveFitting=1;jiggle=2;" parent="YT2RuRJ8nAbgr_poYTAT-45" vertex="1">
                    <mxGeometry y="36.888888888888886" width="238" height="8" as="geometry"/>
                </mxCell>
                <mxCell id="YT2RuRJ8nAbgr_poYTAT-47" value="+getMinute() : :int" style="text;strokeColor=none;fillColor=none;align=left;verticalAlign=top;spacingLeft=4;spacingRight=4;overflow=hidden;rotatable=0;points=[[0,0.5],[1,0.5]];portConstraint=eastwest;sketch=1;curveFitting=1;jiggle=2;" parent="YT2RuRJ8nAbgr_poYTAT-45" vertex="1">
                    <mxGeometry y="44.888888888888886" width="238" height="37" as="geometry"/>
                </mxCell>
                <mxCell id="YT2RuRJ8nAbgr_poYTAT-48" value="+getProbability() : :double" style="text;strokeColor=none;fillColor=none;align=left;verticalAlign=top;spacingLeft=4;spacingRight=4;overflow=hidden;rotatable=0;points=[[0,0.5],[1,0.5]];portConstraint=eastwest;sketch=1;curveFitting=1;jiggle=2;" parent="YT2RuRJ8nAbgr_poYTAT-45" vertex="1">
                    <mxGeometry y="81.88888888888889" width="238" height="37" as="geometry"/>
                </mxCell>
                <mxCell id="YT2RuRJ8nAbgr_poYTAT-49" value="+occurs() : :boolean" style="text;strokeColor=none;fillColor=none;align=left;verticalAlign=top;spacingLeft=4;spacingRight=4;overflow=hidden;rotatable=0;points=[[0,0.5],[1,0.5]];portConstraint=eastwest;sketch=1;curveFitting=1;jiggle=2;" parent="YT2RuRJ8nAbgr_poYTAT-45" vertex="1">
                    <mxGeometry y="118.88888888888889" width="238" height="37" as="geometry"/>
                </mxCell>
                <mxCell id="YT2RuRJ8nAbgr_poYTAT-50" value="IGoalEvent" style="swimlane;fontStyle=1;align=center;verticalAlign=top;childLayout=stackLayout;horizontal=1;startSize=47.2;horizontalStack=0;resizeParent=1;resizeParentMax=0;resizeLast=0;collapsible=0;marginBottom=0;sketch=1;curveFitting=1;jiggle=2;" parent="1" vertex="1">
                    <mxGeometry x="2629" y="1034" width="223" height="102.2" as="geometry"/>
                </mxCell>
                <mxCell id="YT2RuRJ8nAbgr_poYTAT-51" style="line;strokeWidth=1;fillColor=none;align=left;verticalAlign=middle;spacingTop=-1;spacingLeft=3;spacingRight=3;rotatable=0;labelPosition=right;points=[];portConstraint=eastwest;strokeColor=inherit;sketch=1;curveFitting=1;jiggle=2;" parent="YT2RuRJ8nAbgr_poYTAT-50" vertex="1">
                    <mxGeometry y="47.2" width="223" height="8" as="geometry"/>
                </mxCell>
                <mxCell id="YT2RuRJ8nAbgr_poYTAT-52" value="+getScorer() : :IPlayer" style="text;strokeColor=none;fillColor=none;align=left;verticalAlign=top;spacingLeft=4;spacingRight=4;overflow=hidden;rotatable=0;points=[[0,0.5],[1,0.5]];portConstraint=eastwest;sketch=1;curveFitting=1;jiggle=2;" parent="YT2RuRJ8nAbgr_poYTAT-50" vertex="1">
                    <mxGeometry y="55.2" width="223" height="47" as="geometry"/>
                </mxCell>
                <mxCell id="YT2RuRJ8nAbgr_poYTAT-53" value="MatchSimulatorStrategy" style="swimlane;fontStyle=1;align=center;verticalAlign=top;childLayout=stackLayout;horizontal=1;startSize=47.2;horizontalStack=0;resizeParent=1;resizeParentMax=0;resizeLast=0;collapsible=0;marginBottom=0;sketch=1;curveFitting=1;jiggle=2;" parent="1" vertex="1">
                    <mxGeometry x="1034" y="403" width="421" height="102.2" as="geometry"/>
                </mxCell>
                <mxCell id="YT2RuRJ8nAbgr_poYTAT-54" style="line;strokeWidth=1;fillColor=none;align=left;verticalAlign=middle;spacingTop=-1;spacingLeft=3;spacingRight=3;rotatable=0;labelPosition=right;points=[];portConstraint=eastwest;strokeColor=inherit;sketch=1;curveFitting=1;jiggle=2;" parent="YT2RuRJ8nAbgr_poYTAT-53" vertex="1">
                    <mxGeometry y="47.2" width="421" height="8" as="geometry"/>
                </mxCell>
                <mxCell id="YT2RuRJ8nAbgr_poYTAT-55" value="+simulatePerMinute(IMatch, int) : :IEvent[]" style="text;strokeColor=none;fillColor=none;align=left;verticalAlign=top;spacingLeft=4;spacingRight=4;overflow=hidden;rotatable=0;points=[[0,0.5],[1,0.5]];portConstraint=eastwest;sketch=1;curveFitting=1;jiggle=2;" parent="YT2RuRJ8nAbgr_poYTAT-53" vertex="1">
                    <mxGeometry y="55.2" width="421" height="47" as="geometry"/>
                </mxCell>
                <mxCell id="YT2RuRJ8nAbgr_poYTAT-56" value="IExporter" style="swimlane;fontStyle=1;align=center;verticalAlign=top;childLayout=stackLayout;horizontal=1;startSize=47.2;horizontalStack=0;resizeParent=1;resizeParentMax=0;resizeLast=0;collapsible=0;marginBottom=0;sketch=1;curveFitting=1;jiggle=2;" parent="1" vertex="1">
                    <mxGeometry x="2249" y="403" width="259" height="102.2" as="geometry"/>
                </mxCell>
                <mxCell id="YT2RuRJ8nAbgr_poYTAT-57" style="line;strokeWidth=1;fillColor=none;align=left;verticalAlign=middle;spacingTop=-1;spacingLeft=3;spacingRight=3;rotatable=0;labelPosition=right;points=[];portConstraint=eastwest;strokeColor=inherit;sketch=1;curveFitting=1;jiggle=2;" parent="YT2RuRJ8nAbgr_poYTAT-56" vertex="1">
                    <mxGeometry y="47.2" width="259" height="8" as="geometry"/>
                </mxCell>
                <mxCell id="YT2RuRJ8nAbgr_poYTAT-58" value="+exportData(Object) : :void" style="text;strokeColor=none;fillColor=none;align=left;verticalAlign=top;spacingLeft=4;spacingRight=4;overflow=hidden;rotatable=0;points=[[0,0.5],[1,0.5]];portConstraint=eastwest;sketch=1;curveFitting=1;jiggle=2;" parent="YT2RuRJ8nAbgr_poYTAT-56" vertex="1">
                    <mxGeometry y="55.2" width="259" height="47" as="geometry"/>
                </mxCell>
                <mxCell id="YT2RuRJ8nAbgr_poYTAT-59" value="JsonImporter" style="swimlane;fontStyle=1;align=center;verticalAlign=top;childLayout=stackLayout;horizontal=1;startSize=36.888888888888886;horizontalStack=0;resizeParent=1;resizeParentMax=0;resizeLast=0;collapsible=0;marginBottom=0;sketch=1;curveFitting=1;jiggle=2;" parent="1" vertex="1">
                    <mxGeometry x="4365" y="41" width="385" height="155.88888888888889" as="geometry"/>
                </mxCell>
                <mxCell id="YT2RuRJ8nAbgr_poYTAT-60" style="line;strokeWidth=1;fillColor=none;align=left;verticalAlign=middle;spacingTop=-1;spacingLeft=3;spacingRight=3;rotatable=0;labelPosition=right;points=[];portConstraint=eastwest;strokeColor=inherit;sketch=1;curveFitting=1;jiggle=2;" parent="YT2RuRJ8nAbgr_poYTAT-59" vertex="1">
                    <mxGeometry y="36.888888888888886" width="385" height="8" as="geometry"/>
                </mxCell>
                <mxCell id="YT2RuRJ8nAbgr_poYTAT-61" value="+loadClubs(jsonPath:String) : :Club[]" style="text;strokeColor=none;fillColor=none;align=left;verticalAlign=top;spacingLeft=4;spacingRight=4;overflow=hidden;rotatable=0;points=[[0,0.5],[1,0.5]];portConstraint=eastwest;sketch=1;curveFitting=1;jiggle=2;" parent="YT2RuRJ8nAbgr_poYTAT-59" vertex="1">
                    <mxGeometry y="44.888888888888886" width="385" height="37" as="geometry"/>
                </mxCell>
                <mxCell id="YT2RuRJ8nAbgr_poYTAT-62" value="+loadPlayers(jsonPath:String) : :Player[]" style="text;strokeColor=none;fillColor=none;align=left;verticalAlign=top;spacingLeft=4;spacingRight=4;overflow=hidden;rotatable=0;points=[[0,0.5],[1,0.5]];portConstraint=eastwest;sketch=1;curveFitting=1;jiggle=2;" parent="YT2RuRJ8nAbgr_poYTAT-59" vertex="1">
                    <mxGeometry y="81.88888888888889" width="385" height="37" as="geometry"/>
                </mxCell>
                <mxCell id="YT2RuRJ8nAbgr_poYTAT-63" value="+loadSeasonData(jsonPath:String) : :Season" style="text;strokeColor=none;fillColor=none;align=left;verticalAlign=top;spacingLeft=4;spacingRight=4;overflow=hidden;rotatable=0;points=[[0,0.5],[1,0.5]];portConstraint=eastwest;sketch=1;curveFitting=1;jiggle=2;" parent="YT2RuRJ8nAbgr_poYTAT-59" vertex="1">
                    <mxGeometry y="118.88888888888889" width="385" height="37" as="geometry"/>
                </mxCell>
                <mxCell id="YT2RuRJ8nAbgr_poYTAT-64" value="Season" style="swimlane;fontStyle=1;align=center;verticalAlign=top;childLayout=stackLayout;horizontal=1;startSize=29.333333333333332;horizontalStack=0;resizeParent=1;resizeParentMax=0;resizeLast=0;collapsible=0;marginBottom=0;sketch=1;curveFitting=1;jiggle=2;" parent="1" vertex="1">
                    <mxGeometry x="4401" y="286" width="315" height="356.3333333333333" as="geometry"/>
                </mxCell>
                <mxCell id="YT2RuRJ8nAbgr_poYTAT-65" value="-year:int" style="text;strokeColor=none;fillColor=none;align=left;verticalAlign=top;spacingLeft=4;spacingRight=4;overflow=hidden;rotatable=0;points=[[0,0.5],[1,0.5]];portConstraint=eastwest;sketch=1;curveFitting=1;jiggle=2;" parent="YT2RuRJ8nAbgr_poYTAT-64" vertex="1">
                    <mxGeometry y="29.333333333333332" width="315" height="29" as="geometry"/>
                </mxCell>
                <mxCell id="YT2RuRJ8nAbgr_poYTAT-66" value="-schedule:ISchedule" style="text;strokeColor=none;fillColor=none;align=left;verticalAlign=top;spacingLeft=4;spacingRight=4;overflow=hidden;rotatable=0;points=[[0,0.5],[1,0.5]];portConstraint=eastwest;sketch=1;curveFitting=1;jiggle=2;" parent="YT2RuRJ8nAbgr_poYTAT-64" vertex="1">
                    <mxGeometry y="58.33333333333333" width="315" height="29" as="geometry"/>
                </mxCell>
                <mxCell id="YT2RuRJ8nAbgr_poYTAT-67" value="-standings:IStanding[]" style="text;strokeColor=none;fillColor=none;align=left;verticalAlign=top;spacingLeft=4;spacingRight=4;overflow=hidden;rotatable=0;points=[[0,0.5],[1,0.5]];portConstraint=eastwest;sketch=1;curveFitting=1;jiggle=2;" parent="YT2RuRJ8nAbgr_poYTAT-64" vertex="1">
                    <mxGeometry y="87.33333333333333" width="315" height="29" as="geometry"/>
                </mxCell>
                <mxCell id="YT2RuRJ8nAbgr_poYTAT-68" value="-ptsWin:int" style="text;strokeColor=none;fillColor=none;align=left;verticalAlign=top;spacingLeft=4;spacingRight=4;overflow=hidden;rotatable=0;points=[[0,0.5],[1,0.5]];portConstraint=eastwest;sketch=1;curveFitting=1;jiggle=2;" parent="YT2RuRJ8nAbgr_poYTAT-64" vertex="1">
                    <mxGeometry y="116.33333333333333" width="315" height="29" as="geometry"/>
                </mxCell>
                <mxCell id="YT2RuRJ8nAbgr_poYTAT-69" value="-ptsDraw:int" style="text;strokeColor=none;fillColor=none;align=left;verticalAlign=top;spacingLeft=4;spacingRight=4;overflow=hidden;rotatable=0;points=[[0,0.5],[1,0.5]];portConstraint=eastwest;sketch=1;curveFitting=1;jiggle=2;" parent="YT2RuRJ8nAbgr_poYTAT-64" vertex="1">
                    <mxGeometry y="145.33333333333331" width="315" height="29" as="geometry"/>
                </mxCell>
                <mxCell id="YT2RuRJ8nAbgr_poYTAT-70" value="-ptsLoss:int" style="text;strokeColor=none;fillColor=none;align=left;verticalAlign=top;spacingLeft=4;spacingRight=4;overflow=hidden;rotatable=0;points=[[0,0.5],[1,0.5]];portConstraint=eastwest;sketch=1;curveFitting=1;jiggle=2;" parent="YT2RuRJ8nAbgr_poYTAT-64" vertex="1">
                    <mxGeometry y="174.33333333333331" width="315" height="29" as="geometry"/>
                </mxCell>
                <mxCell id="YT2RuRJ8nAbgr_poYTAT-71" style="line;strokeWidth=1;fillColor=none;align=left;verticalAlign=middle;spacingTop=-1;spacingLeft=3;spacingRight=3;rotatable=0;labelPosition=right;points=[];portConstraint=eastwest;strokeColor=inherit;sketch=1;curveFitting=1;jiggle=2;" parent="YT2RuRJ8nAbgr_poYTAT-64" vertex="1">
                    <mxGeometry y="203.33333333333331" width="315" height="8" as="geometry"/>
                </mxCell>
                <mxCell id="YT2RuRJ8nAbgr_poYTAT-72" value="+Season(year:int, clubs:Club[])" style="text;strokeColor=none;fillColor=none;align=left;verticalAlign=top;spacingLeft=4;spacingRight=4;overflow=hidden;rotatable=0;points=[[0,0.5],[1,0.5]];portConstraint=eastwest;sketch=1;curveFitting=1;jiggle=2;" parent="YT2RuRJ8nAbgr_poYTAT-64" vertex="1">
                    <mxGeometry y="211.33333333333331" width="315" height="29" as="geometry"/>
                </mxCell>
                <mxCell id="YT2RuRJ8nAbgr_poYTAT-73" value="+generateSchedule() : :void" style="text;strokeColor=none;fillColor=none;align=left;verticalAlign=top;spacingLeft=4;spacingRight=4;overflow=hidden;rotatable=0;points=[[0,0.5],[1,0.5]];portConstraint=eastwest;sketch=1;curveFitting=1;jiggle=2;" parent="YT2RuRJ8nAbgr_poYTAT-64" vertex="1">
                    <mxGeometry y="240.33333333333331" width="315" height="29" as="geometry"/>
                </mxCell>
                <mxCell id="YT2RuRJ8nAbgr_poYTAT-74" value="+simulateNextMatch() : :MatchResult" style="text;strokeColor=none;fillColor=none;align=left;verticalAlign=top;spacingLeft=4;spacingRight=4;overflow=hidden;rotatable=0;points=[[0,0.5],[1,0.5]];portConstraint=eastwest;sketch=1;curveFitting=1;jiggle=2;" parent="YT2RuRJ8nAbgr_poYTAT-64" vertex="1">
                    <mxGeometry y="269.3333333333333" width="315" height="29" as="geometry"/>
                </mxCell>
                <mxCell id="YT2RuRJ8nAbgr_poYTAT-75" value="+calculateStandings() : :void" style="text;strokeColor=none;fillColor=none;align=left;verticalAlign=top;spacingLeft=4;spacingRight=4;overflow=hidden;rotatable=0;points=[[0,0.5],[1,0.5]];portConstraint=eastwest;sketch=1;curveFitting=1;jiggle=2;" parent="YT2RuRJ8nAbgr_poYTAT-64" vertex="1">
                    <mxGeometry y="298.3333333333333" width="315" height="29" as="geometry"/>
                </mxCell>
                <mxCell id="YT2RuRJ8nAbgr_poYTAT-76" value="+getStandings() : :IStanding[]" style="text;strokeColor=none;fillColor=none;align=left;verticalAlign=top;spacingLeft=4;spacingRight=4;overflow=hidden;rotatable=0;points=[[0,0.5],[1,0.5]];portConstraint=eastwest;sketch=1;curveFitting=1;jiggle=2;" parent="YT2RuRJ8nAbgr_poYTAT-64" vertex="1">
                    <mxGeometry y="327.3333333333333" width="315" height="29" as="geometry"/>
                </mxCell>
                <mxCell id="YT2RuRJ8nAbgr_poYTAT-77" value="League" style="swimlane;fontStyle=1;align=center;verticalAlign=top;childLayout=stackLayout;horizontal=1;startSize=34.666666666666664;horizontalStack=0;resizeParent=1;resizeParentMax=0;resizeLast=0;collapsible=0;marginBottom=0;sketch=1;curveFitting=1;jiggle=2;" parent="1" vertex="1">
                    <mxGeometry x="1894" y="358" width="305" height="217.66666666666666" as="geometry"/>
                </mxCell>
                <mxCell id="YT2RuRJ8nAbgr_poYTAT-78" value="-name:String" style="text;strokeColor=none;fillColor=none;align=left;verticalAlign=top;spacingLeft=4;spacingRight=4;overflow=hidden;rotatable=0;points=[[0,0.5],[1,0.5]];portConstraint=eastwest;sketch=1;curveFitting=1;jiggle=2;" parent="YT2RuRJ8nAbgr_poYTAT-77" vertex="1">
                    <mxGeometry y="34.666666666666664" width="305" height="35" as="geometry"/>
                </mxCell>
                <mxCell id="YT2RuRJ8nAbgr_poYTAT-79" value="-clubs:Club[]" style="text;strokeColor=none;fillColor=none;align=left;verticalAlign=top;spacingLeft=4;spacingRight=4;overflow=hidden;rotatable=0;points=[[0,0.5],[1,0.5]];portConstraint=eastwest;sketch=1;curveFitting=1;jiggle=2;" parent="YT2RuRJ8nAbgr_poYTAT-77" vertex="1">
                    <mxGeometry y="69.66666666666666" width="305" height="35" as="geometry"/>
                </mxCell>
                <mxCell id="YT2RuRJ8nAbgr_poYTAT-80" style="line;strokeWidth=1;fillColor=none;align=left;verticalAlign=middle;spacingTop=-1;spacingLeft=3;spacingRight=3;rotatable=0;labelPosition=right;points=[];portConstraint=eastwest;strokeColor=inherit;sketch=1;curveFitting=1;jiggle=2;" parent="YT2RuRJ8nAbgr_poYTAT-77" vertex="1">
                    <mxGeometry y="104.66666666666666" width="305" height="8" as="geometry"/>
                </mxCell>
                <mxCell id="YT2RuRJ8nAbgr_poYTAT-81" value="+League(name:String, clubs:Club[])" style="text;strokeColor=none;fillColor=none;align=left;verticalAlign=top;spacingLeft=4;spacingRight=4;overflow=hidden;rotatable=0;points=[[0,0.5],[1,0.5]];portConstraint=eastwest;sketch=1;curveFitting=1;jiggle=2;" parent="YT2RuRJ8nAbgr_poYTAT-77" vertex="1">
                    <mxGeometry y="112.66666666666666" width="305" height="35" as="geometry"/>
                </mxCell>
                <mxCell id="YT2RuRJ8nAbgr_poYTAT-82" value="+getClubs() : :Club[]" style="text;strokeColor=none;fillColor=none;align=left;verticalAlign=top;spacingLeft=4;spacingRight=4;overflow=hidden;rotatable=0;points=[[0,0.5],[1,0.5]];portConstraint=eastwest;sketch=1;curveFitting=1;jiggle=2;" parent="YT2RuRJ8nAbgr_poYTAT-77" vertex="1">
                    <mxGeometry y="147.66666666666666" width="305" height="35" as="geometry"/>
                </mxCell>
                <mxCell id="YT2RuRJ8nAbgr_poYTAT-83" value="+setClubs(clubs:Club[]) : :void" style="text;strokeColor=none;fillColor=none;align=left;verticalAlign=top;spacingLeft=4;spacingRight=4;overflow=hidden;rotatable=0;points=[[0,0.5],[1,0.5]];portConstraint=eastwest;sketch=1;curveFitting=1;jiggle=2;" parent="YT2RuRJ8nAbgr_poYTAT-77" vertex="1">
                    <mxGeometry y="182.66666666666666" width="305" height="35" as="geometry"/>
                </mxCell>
                <mxCell id="YT2RuRJ8nAbgr_poYTAT-84" value="Club" style="swimlane;fontStyle=1;align=center;verticalAlign=top;childLayout=stackLayout;horizontal=1;startSize=32;horizontalStack=0;resizeParent=1;resizeParentMax=0;resizeLast=0;collapsible=0;marginBottom=0;sketch=1;curveFitting=1;jiggle=2;" parent="1" vertex="1">
                    <mxGeometry x="3623" y="334" width="331" height="264" as="geometry"/>
                </mxCell>
                <mxCell id="YT2RuRJ8nAbgr_poYTAT-85" value="-name:String" style="text;strokeColor=none;fillColor=none;align=left;verticalAlign=top;spacingLeft=4;spacingRight=4;overflow=hidden;rotatable=0;points=[[0,0.5],[1,0.5]];portConstraint=eastwest;sketch=1;curveFitting=1;jiggle=2;" parent="YT2RuRJ8nAbgr_poYTAT-84" vertex="1">
                    <mxGeometry y="32" width="331" height="32" as="geometry"/>
                </mxCell>
                <mxCell id="YT2RuRJ8nAbgr_poYTAT-86" value="-players:Player[]" style="text;strokeColor=none;fillColor=none;align=left;verticalAlign=top;spacingLeft=4;spacingRight=4;overflow=hidden;rotatable=0;points=[[0,0.5],[1,0.5]];portConstraint=eastwest;sketch=1;curveFitting=1;jiggle=2;" parent="YT2RuRJ8nAbgr_poYTAT-84" vertex="1">
                    <mxGeometry y="64" width="331" height="32" as="geometry"/>
                </mxCell>
                <mxCell id="YT2RuRJ8nAbgr_poYTAT-87" value="-stats:TeamStats" style="text;strokeColor=none;fillColor=none;align=left;verticalAlign=top;spacingLeft=4;spacingRight=4;overflow=hidden;rotatable=0;points=[[0,0.5],[1,0.5]];portConstraint=eastwest;sketch=1;curveFitting=1;jiggle=2;" parent="YT2RuRJ8nAbgr_poYTAT-84" vertex="1">
                    <mxGeometry y="96" width="331" height="32" as="geometry"/>
                </mxCell>
                <mxCell id="YT2RuRJ8nAbgr_poYTAT-88" style="line;strokeWidth=1;fillColor=none;align=left;verticalAlign=middle;spacingTop=-1;spacingLeft=3;spacingRight=3;rotatable=0;labelPosition=right;points=[];portConstraint=eastwest;strokeColor=inherit;sketch=1;curveFitting=1;jiggle=2;" parent="YT2RuRJ8nAbgr_poYTAT-84" vertex="1">
                    <mxGeometry y="128" width="331" height="8" as="geometry"/>
                </mxCell>
                <mxCell id="YT2RuRJ8nAbgr_poYTAT-89" value="+Club(name:String, players:Player[])" style="text;strokeColor=none;fillColor=none;align=left;verticalAlign=top;spacingLeft=4;spacingRight=4;overflow=hidden;rotatable=0;points=[[0,0.5],[1,0.5]];portConstraint=eastwest;sketch=1;curveFitting=1;jiggle=2;" parent="YT2RuRJ8nAbgr_poYTAT-84" vertex="1">
                    <mxGeometry y="136" width="331" height="32" as="geometry"/>
                </mxCell>
                <mxCell id="YT2RuRJ8nAbgr_poYTAT-90" value="+getPlayers() : :Player[]" style="text;strokeColor=none;fillColor=none;align=left;verticalAlign=top;spacingLeft=4;spacingRight=4;overflow=hidden;rotatable=0;points=[[0,0.5],[1,0.5]];portConstraint=eastwest;sketch=1;curveFitting=1;jiggle=2;" parent="YT2RuRJ8nAbgr_poYTAT-84" vertex="1">
                    <mxGeometry y="168" width="331" height="32" as="geometry"/>
                </mxCell>
                <mxCell id="YT2RuRJ8nAbgr_poYTAT-91" value="+selectFormation(f:Formation) : :void" style="text;strokeColor=none;fillColor=none;align=left;verticalAlign=top;spacingLeft=4;spacingRight=4;overflow=hidden;rotatable=0;points=[[0,0.5],[1,0.5]];portConstraint=eastwest;sketch=1;curveFitting=1;jiggle=2;" parent="YT2RuRJ8nAbgr_poYTAT-84" vertex="1">
                    <mxGeometry y="200" width="331" height="32" as="geometry"/>
                </mxCell>
                <mxCell id="YT2RuRJ8nAbgr_poYTAT-92" value="+updateStats(result:MatchResult) : :void" style="text;strokeColor=none;fillColor=none;align=left;verticalAlign=top;spacingLeft=4;spacingRight=4;overflow=hidden;rotatable=0;points=[[0,0.5],[1,0.5]];portConstraint=eastwest;sketch=1;curveFitting=1;jiggle=2;" parent="YT2RuRJ8nAbgr_poYTAT-84" vertex="1">
                    <mxGeometry y="232" width="331" height="32" as="geometry"/>
                </mxCell>
                <mxCell id="YT2RuRJ8nAbgr_poYTAT-93" value="Player" style="swimlane;fontStyle=1;align=center;verticalAlign=top;childLayout=stackLayout;horizontal=1;startSize=30.4;horizontalStack=0;resizeParent=1;resizeParentMax=0;resizeLast=0;collapsible=0;marginBottom=0;sketch=1;curveFitting=1;jiggle=2;" parent="1" vertex="1">
                    <mxGeometry x="5082" y="310" width="491" height="308.4" as="geometry"/>
                </mxCell>
                <mxCell id="YT2RuRJ8nAbgr_poYTAT-94" value="-name:String" style="text;strokeColor=none;fillColor=none;align=left;verticalAlign=top;spacingLeft=4;spacingRight=4;overflow=hidden;rotatable=0;points=[[0,0.5],[1,0.5]];portConstraint=eastwest;sketch=1;curveFitting=1;jiggle=2;" parent="YT2RuRJ8nAbgr_poYTAT-93" vertex="1">
                    <mxGeometry y="30.4" width="491" height="30" as="geometry"/>
                </mxCell>
                <mxCell id="YT2RuRJ8nAbgr_poYTAT-95" value="-position:IPlayerPosition" style="text;strokeColor=none;fillColor=none;align=left;verticalAlign=top;spacingLeft=4;spacingRight=4;overflow=hidden;rotatable=0;points=[[0,0.5],[1,0.5]];portConstraint=eastwest;sketch=1;curveFitting=1;jiggle=2;" parent="YT2RuRJ8nAbgr_poYTAT-93" vertex="1">
                    <mxGeometry y="60.4" width="491" height="30" as="geometry"/>
                </mxCell>
                <mxCell id="YT2RuRJ8nAbgr_poYTAT-96" value="-foot:PreferredFoot" style="text;strokeColor=none;fillColor=none;align=left;verticalAlign=top;spacingLeft=4;spacingRight=4;overflow=hidden;rotatable=0;points=[[0,0.5],[1,0.5]];portConstraint=eastwest;sketch=1;curveFitting=1;jiggle=2;" parent="YT2RuRJ8nAbgr_poYTAT-93" vertex="1">
                    <mxGeometry y="90.4" width="491" height="30" as="geometry"/>
                </mxCell>
                <mxCell id="YT2RuRJ8nAbgr_poYTAT-97" value="-shooting:int" style="text;strokeColor=none;fillColor=none;align=left;verticalAlign=top;spacingLeft=4;spacingRight=4;overflow=hidden;rotatable=0;points=[[0,0.5],[1,0.5]];portConstraint=eastwest;sketch=1;curveFitting=1;jiggle=2;" parent="YT2RuRJ8nAbgr_poYTAT-93" vertex="1">
                    <mxGeometry y="120.4" width="491" height="30" as="geometry"/>
                </mxCell>
                <mxCell id="YT2RuRJ8nAbgr_poYTAT-98" value="-passing:int" style="text;strokeColor=none;fillColor=none;align=left;verticalAlign=top;spacingLeft=4;spacingRight=4;overflow=hidden;rotatable=0;points=[[0,0.5],[1,0.5]];portConstraint=eastwest;sketch=1;curveFitting=1;jiggle=2;" parent="YT2RuRJ8nAbgr_poYTAT-93" vertex="1">
                    <mxGeometry y="150.4" width="491" height="30" as="geometry"/>
                </mxCell>
                <mxCell id="YT2RuRJ8nAbgr_poYTAT-99" value="-speed:int" style="text;strokeColor=none;fillColor=none;align=left;verticalAlign=top;spacingLeft=4;spacingRight=4;overflow=hidden;rotatable=0;points=[[0,0.5],[1,0.5]];portConstraint=eastwest;sketch=1;curveFitting=1;jiggle=2;" parent="YT2RuRJ8nAbgr_poYTAT-93" vertex="1">
                    <mxGeometry y="180.4" width="491" height="30" as="geometry"/>
                </mxCell>
                <mxCell id="YT2RuRJ8nAbgr_poYTAT-100" value="-stats:PlayerStats" style="text;strokeColor=none;fillColor=none;align=left;verticalAlign=top;spacingLeft=4;spacingRight=4;overflow=hidden;rotatable=0;points=[[0,0.5],[1,0.5]];portConstraint=eastwest;sketch=1;curveFitting=1;jiggle=2;" parent="YT2RuRJ8nAbgr_poYTAT-93" vertex="1">
                    <mxGeometry y="210.4" width="491" height="30" as="geometry"/>
                </mxCell>
                <mxCell id="YT2RuRJ8nAbgr_poYTAT-101" style="line;strokeWidth=1;fillColor=none;align=left;verticalAlign=middle;spacingTop=-1;spacingLeft=3;spacingRight=3;rotatable=0;labelPosition=right;points=[];portConstraint=eastwest;strokeColor=inherit;sketch=1;curveFitting=1;jiggle=2;" parent="YT2RuRJ8nAbgr_poYTAT-93" vertex="1">
                    <mxGeometry y="240.4" width="491" height="8" as="geometry"/>
                </mxCell>
                <mxCell id="YT2RuRJ8nAbgr_poYTAT-102" value="+Player(name:String, pos:IPlayerPosition, foot:PreferredFoot)" style="text;strokeColor=none;fillColor=none;align=left;verticalAlign=top;spacingLeft=4;spacingRight=4;overflow=hidden;rotatable=0;points=[[0,0.5],[1,0.5]];portConstraint=eastwest;sketch=1;curveFitting=1;jiggle=2;" parent="YT2RuRJ8nAbgr_poYTAT-93" vertex="1">
                    <mxGeometry y="248.4" width="491" height="30" as="geometry"/>
                </mxCell>
                <mxCell id="YT2RuRJ8nAbgr_poYTAT-103" value="+updateStats(evt:IEvent) : :void" style="text;strokeColor=none;fillColor=none;align=left;verticalAlign=top;spacingLeft=4;spacingRight=4;overflow=hidden;rotatable=0;points=[[0,0.5],[1,0.5]];portConstraint=eastwest;sketch=1;curveFitting=1;jiggle=2;" parent="YT2RuRJ8nAbgr_poYTAT-93" vertex="1">
                    <mxGeometry y="278.4" width="491" height="30" as="geometry"/>
                </mxCell>
                <mxCell id="YT2RuRJ8nAbgr_poYTAT-104" value="Formation" style="swimlane;fontStyle=1;align=center;verticalAlign=top;childLayout=stackLayout;horizontal=1;startSize=34.666666666666664;horizontalStack=0;resizeParent=1;resizeParentMax=0;resizeLast=0;collapsible=0;marginBottom=0;sketch=1;curveFitting=1;jiggle=2;" parent="1" vertex="1">
                    <mxGeometry x="384" y="20" width="520" height="217.66666666666666" as="geometry"/>
                </mxCell>
                <mxCell id="YT2RuRJ8nAbgr_poYTAT-105" value="-name:String" style="text;strokeColor=none;fillColor=none;align=left;verticalAlign=top;spacingLeft=4;spacingRight=4;overflow=hidden;rotatable=0;points=[[0,0.5],[1,0.5]];portConstraint=eastwest;sketch=1;curveFitting=1;jiggle=2;" parent="YT2RuRJ8nAbgr_poYTAT-104" vertex="1">
                    <mxGeometry y="34.666666666666664" width="520" height="35" as="geometry"/>
                </mxCell>
                <mxCell id="YT2RuRJ8nAbgr_poYTAT-106" value="-positions:IPlayerPosition[]" style="text;strokeColor=none;fillColor=none;align=left;verticalAlign=top;spacingLeft=4;spacingRight=4;overflow=hidden;rotatable=0;points=[[0,0.5],[1,0.5]];portConstraint=eastwest;sketch=1;curveFitting=1;jiggle=2;" parent="YT2RuRJ8nAbgr_poYTAT-104" vertex="1">
                    <mxGeometry y="69.66666666666666" width="520" height="35" as="geometry"/>
                </mxCell>
                <mxCell id="YT2RuRJ8nAbgr_poYTAT-107" value="-slots:int[]" style="text;strokeColor=none;fillColor=none;align=left;verticalAlign=top;spacingLeft=4;spacingRight=4;overflow=hidden;rotatable=0;points=[[0,0.5],[1,0.5]];portConstraint=eastwest;sketch=1;curveFitting=1;jiggle=2;" parent="YT2RuRJ8nAbgr_poYTAT-104" vertex="1">
                    <mxGeometry y="104.66666666666666" width="520" height="35" as="geometry"/>
                </mxCell>
                <mxCell id="YT2RuRJ8nAbgr_poYTAT-108" style="line;strokeWidth=1;fillColor=none;align=left;verticalAlign=middle;spacingTop=-1;spacingLeft=3;spacingRight=3;rotatable=0;labelPosition=right;points=[];portConstraint=eastwest;strokeColor=inherit;sketch=1;curveFitting=1;jiggle=2;" parent="YT2RuRJ8nAbgr_poYTAT-104" vertex="1">
                    <mxGeometry y="139.66666666666666" width="520" height="8" as="geometry"/>
                </mxCell>
                <mxCell id="YT2RuRJ8nAbgr_poYTAT-109" value="+Formation(name:String, positions:IPlayerPosition[], slots:int[])" style="text;strokeColor=none;fillColor=none;align=left;verticalAlign=top;spacingLeft=4;spacingRight=4;overflow=hidden;rotatable=0;points=[[0,0.5],[1,0.5]];portConstraint=eastwest;sketch=1;curveFitting=1;jiggle=2;" parent="YT2RuRJ8nAbgr_poYTAT-104" vertex="1">
                    <mxGeometry y="147.66666666666666" width="520" height="35" as="geometry"/>
                </mxCell>
                <mxCell id="YT2RuRJ8nAbgr_poYTAT-110" value="+getSlots() : :Map" style="text;strokeColor=none;fillColor=none;align=left;verticalAlign=top;spacingLeft=4;spacingRight=4;overflow=hidden;rotatable=0;points=[[0,0.5],[1,0.5]];portConstraint=eastwest;sketch=1;curveFitting=1;jiggle=2;" parent="YT2RuRJ8nAbgr_poYTAT-104" vertex="1">
                    <mxGeometry y="182.66666666666666" width="520" height="35" as="geometry"/>
                </mxCell>
                <mxCell id="YT2RuRJ8nAbgr_poYTAT-111" value="Squad" style="swimlane;fontStyle=1;align=center;verticalAlign=top;childLayout=stackLayout;horizontal=1;startSize=34.666666666666664;horizontalStack=0;resizeParent=1;resizeParentMax=0;resizeLast=0;collapsible=0;marginBottom=0;sketch=1;curveFitting=1;jiggle=2;" parent="1" vertex="1">
                    <mxGeometry x="2909" y="732" width="411" height="217.66666666666666" as="geometry"/>
                </mxCell>
                <mxCell id="YT2RuRJ8nAbgr_poYTAT-112" value="-positions:IPlayerPosition[]" style="text;strokeColor=none;fillColor=none;align=left;verticalAlign=top;spacingLeft=4;spacingRight=4;overflow=hidden;rotatable=0;points=[[0,0.5],[1,0.5]];portConstraint=eastwest;sketch=1;curveFitting=1;jiggle=2;" parent="YT2RuRJ8nAbgr_poYTAT-111" vertex="1">
                    <mxGeometry y="34.666666666666664" width="411" height="35" as="geometry"/>
                </mxCell>
                <mxCell id="YT2RuRJ8nAbgr_poYTAT-113" value="-players:Player[]" style="text;strokeColor=none;fillColor=none;align=left;verticalAlign=top;spacingLeft=4;spacingRight=4;overflow=hidden;rotatable=0;points=[[0,0.5],[1,0.5]];portConstraint=eastwest;sketch=1;curveFitting=1;jiggle=2;" parent="YT2RuRJ8nAbgr_poYTAT-111" vertex="1">
                    <mxGeometry y="69.66666666666666" width="411" height="35" as="geometry"/>
                </mxCell>
                <mxCell id="YT2RuRJ8nAbgr_poYTAT-114" style="line;strokeWidth=1;fillColor=none;align=left;verticalAlign=middle;spacingTop=-1;spacingLeft=3;spacingRight=3;rotatable=0;labelPosition=right;points=[];portConstraint=eastwest;strokeColor=inherit;sketch=1;curveFitting=1;jiggle=2;" parent="YT2RuRJ8nAbgr_poYTAT-111" vertex="1">
                    <mxGeometry y="104.66666666666666" width="411" height="8" as="geometry"/>
                </mxCell>
                <mxCell id="YT2RuRJ8nAbgr_poYTAT-115" value="+Squad(size:int)" style="text;strokeColor=none;fillColor=none;align=left;verticalAlign=top;spacingLeft=4;spacingRight=4;overflow=hidden;rotatable=0;points=[[0,0.5],[1,0.5]];portConstraint=eastwest;sketch=1;curveFitting=1;jiggle=2;" parent="YT2RuRJ8nAbgr_poYTAT-111" vertex="1">
                    <mxGeometry y="112.66666666666666" width="411" height="35" as="geometry"/>
                </mxCell>
                <mxCell id="YT2RuRJ8nAbgr_poYTAT-116" value="+assignPlayer(pos:IPlayerPosition, p:Player) : :void" style="text;strokeColor=none;fillColor=none;align=left;verticalAlign=top;spacingLeft=4;spacingRight=4;overflow=hidden;rotatable=0;points=[[0,0.5],[1,0.5]];portConstraint=eastwest;sketch=1;curveFitting=1;jiggle=2;" parent="YT2RuRJ8nAbgr_poYTAT-111" vertex="1">
                    <mxGeometry y="147.66666666666666" width="411" height="35" as="geometry"/>
                </mxCell>
                <mxCell id="YT2RuRJ8nAbgr_poYTAT-117" value="+getLineup() : :Player[]" style="text;strokeColor=none;fillColor=none;align=left;verticalAlign=top;spacingLeft=4;spacingRight=4;overflow=hidden;rotatable=0;points=[[0,0.5],[1,0.5]];portConstraint=eastwest;sketch=1;curveFitting=1;jiggle=2;" parent="YT2RuRJ8nAbgr_poYTAT-111" vertex="1">
                    <mxGeometry y="182.66666666666666" width="411" height="35" as="geometry"/>
                </mxCell>
                <mxCell id="YT2RuRJ8nAbgr_poYTAT-118" value="Match" style="swimlane;fontStyle=1;align=center;verticalAlign=top;childLayout=stackLayout;horizontal=1;startSize=32;horizontalStack=0;resizeParent=1;resizeParentMax=0;resizeLast=0;collapsible=0;marginBottom=0;sketch=1;curveFitting=1;jiggle=2;" parent="1" vertex="1">
                    <mxGeometry x="2597" y="334" width="640" height="264" as="geometry"/>
                </mxCell>
                <mxCell id="YT2RuRJ8nAbgr_poYTAT-119" value="-home:Club" style="text;strokeColor=none;fillColor=none;align=left;verticalAlign=top;spacingLeft=4;spacingRight=4;overflow=hidden;rotatable=0;points=[[0,0.5],[1,0.5]];portConstraint=eastwest;sketch=1;curveFitting=1;jiggle=2;" parent="YT2RuRJ8nAbgr_poYTAT-118" vertex="1">
                    <mxGeometry y="32" width="640" height="32" as="geometry"/>
                </mxCell>
                <mxCell id="YT2RuRJ8nAbgr_poYTAT-120" value="-away:Club" style="text;strokeColor=none;fillColor=none;align=left;verticalAlign=top;spacingLeft=4;spacingRight=4;overflow=hidden;rotatable=0;points=[[0,0.5],[1,0.5]];portConstraint=eastwest;sketch=1;curveFitting=1;jiggle=2;" parent="YT2RuRJ8nAbgr_poYTAT-118" vertex="1">
                    <mxGeometry y="64" width="640" height="32" as="geometry"/>
                </mxCell>
                <mxCell id="YT2RuRJ8nAbgr_poYTAT-121" value="-date:LocalDate" style="text;strokeColor=none;fillColor=none;align=left;verticalAlign=top;spacingLeft=4;spacingRight=4;overflow=hidden;rotatable=0;points=[[0,0.5],[1,0.5]];portConstraint=eastwest;sketch=1;curveFitting=1;jiggle=2;" parent="YT2RuRJ8nAbgr_poYTAT-118" vertex="1">
                    <mxGeometry y="96" width="640" height="32" as="geometry"/>
                </mxCell>
                <mxCell id="YT2RuRJ8nAbgr_poYTAT-122" value="-events:IEvent[]" style="text;strokeColor=none;fillColor=none;align=left;verticalAlign=top;spacingLeft=4;spacingRight=4;overflow=hidden;rotatable=0;points=[[0,0.5],[1,0.5]];portConstraint=eastwest;sketch=1;curveFitting=1;jiggle=2;" parent="YT2RuRJ8nAbgr_poYTAT-118" vertex="1">
                    <mxGeometry y="128" width="640" height="32" as="geometry"/>
                </mxCell>
                <mxCell id="YT2RuRJ8nAbgr_poYTAT-123" style="line;strokeWidth=1;fillColor=none;align=left;verticalAlign=middle;spacingTop=-1;spacingLeft=3;spacingRight=3;rotatable=0;labelPosition=right;points=[];portConstraint=eastwest;strokeColor=inherit;sketch=1;curveFitting=1;jiggle=2;" parent="YT2RuRJ8nAbgr_poYTAT-118" vertex="1">
                    <mxGeometry y="160" width="640" height="8" as="geometry"/>
                </mxCell>
                <mxCell id="YT2RuRJ8nAbgr_poYTAT-124" value="+Match(home:Club, away:Club, date:LocalDate)" style="text;strokeColor=none;fillColor=none;align=left;verticalAlign=top;spacingLeft=4;spacingRight=4;overflow=hidden;rotatable=0;points=[[0,0.5],[1,0.5]];portConstraint=eastwest;sketch=1;curveFitting=1;jiggle=2;" parent="YT2RuRJ8nAbgr_poYTAT-118" vertex="1">
                    <mxGeometry y="168" width="640" height="32" as="geometry"/>
                </mxCell>
                <mxCell id="YT2RuRJ8nAbgr_poYTAT-125" value="+play(strat:MatchSimulatorStrategy, homeSq:Squad, awaySq:Squad) : :MatchResult" style="text;strokeColor=none;fillColor=none;align=left;verticalAlign=top;spacingLeft=4;spacingRight=4;overflow=hidden;rotatable=0;points=[[0,0.5],[1,0.5]];portConstraint=eastwest;sketch=1;curveFitting=1;jiggle=2;" parent="YT2RuRJ8nAbgr_poYTAT-118" vertex="1">
                    <mxGeometry y="200" width="640" height="32" as="geometry"/>
                </mxCell>
                <mxCell id="YT2RuRJ8nAbgr_poYTAT-126" value="+getEvents() : :IEvent[]" style="text;strokeColor=none;fillColor=none;align=left;verticalAlign=top;spacingLeft=4;spacingRight=4;overflow=hidden;rotatable=0;points=[[0,0.5],[1,0.5]];portConstraint=eastwest;sketch=1;curveFitting=1;jiggle=2;" parent="YT2RuRJ8nAbgr_poYTAT-118" vertex="1">
                    <mxGeometry y="232" width="640" height="32" as="geometry"/>
                </mxCell>
                <mxCell id="YT2RuRJ8nAbgr_poYTAT-127" value="TeamStats" style="swimlane;fontStyle=1;align=center;verticalAlign=top;childLayout=stackLayout;horizontal=1;startSize=31.11111111111111;horizontalStack=0;resizeParent=1;resizeParentMax=0;resizeLast=0;collapsible=0;marginBottom=0;sketch=1;curveFitting=1;jiggle=2;" parent="1" vertex="1">
                    <mxGeometry x="3640" y="696" width="317" height="287.1111111111111" as="geometry"/>
                </mxCell>
                <mxCell id="YT2RuRJ8nAbgr_poYTAT-128" value="-played:int" style="text;strokeColor=none;fillColor=none;align=left;verticalAlign=top;spacingLeft=4;spacingRight=4;overflow=hidden;rotatable=0;points=[[0,0.5],[1,0.5]];portConstraint=eastwest;sketch=1;curveFitting=1;jiggle=2;" parent="YT2RuRJ8nAbgr_poYTAT-127" vertex="1">
                    <mxGeometry y="31.11111111111111" width="317" height="31" as="geometry"/>
                </mxCell>
                <mxCell id="YT2RuRJ8nAbgr_poYTAT-129" value="-wins:int" style="text;strokeColor=none;fillColor=none;align=left;verticalAlign=top;spacingLeft=4;spacingRight=4;overflow=hidden;rotatable=0;points=[[0,0.5],[1,0.5]];portConstraint=eastwest;sketch=1;curveFitting=1;jiggle=2;" parent="YT2RuRJ8nAbgr_poYTAT-127" vertex="1">
                    <mxGeometry y="62.111111111111114" width="317" height="31" as="geometry"/>
                </mxCell>
                <mxCell id="YT2RuRJ8nAbgr_poYTAT-130" value="-draws:int" style="text;strokeColor=none;fillColor=none;align=left;verticalAlign=top;spacingLeft=4;spacingRight=4;overflow=hidden;rotatable=0;points=[[0,0.5],[1,0.5]];portConstraint=eastwest;sketch=1;curveFitting=1;jiggle=2;" parent="YT2RuRJ8nAbgr_poYTAT-127" vertex="1">
                    <mxGeometry y="93.11111111111111" width="317" height="31" as="geometry"/>
                </mxCell>
                <mxCell id="YT2RuRJ8nAbgr_poYTAT-131" value="-losses:int" style="text;strokeColor=none;fillColor=none;align=left;verticalAlign=top;spacingLeft=4;spacingRight=4;overflow=hidden;rotatable=0;points=[[0,0.5],[1,0.5]];portConstraint=eastwest;sketch=1;curveFitting=1;jiggle=2;" parent="YT2RuRJ8nAbgr_poYTAT-127" vertex="1">
                    <mxGeometry y="124.11111111111111" width="317" height="31" as="geometry"/>
                </mxCell>
                <mxCell id="YT2RuRJ8nAbgr_poYTAT-132" value="-goalsFor:int" style="text;strokeColor=none;fillColor=none;align=left;verticalAlign=top;spacingLeft=4;spacingRight=4;overflow=hidden;rotatable=0;points=[[0,0.5],[1,0.5]];portConstraint=eastwest;sketch=1;curveFitting=1;jiggle=2;" parent="YT2RuRJ8nAbgr_poYTAT-127" vertex="1">
                    <mxGeometry y="155.11111111111111" width="317" height="31" as="geometry"/>
                </mxCell>
                <mxCell id="YT2RuRJ8nAbgr_poYTAT-133" value="-goalsAgainst:int" style="text;strokeColor=none;fillColor=none;align=left;verticalAlign=top;spacingLeft=4;spacingRight=4;overflow=hidden;rotatable=0;points=[[0,0.5],[1,0.5]];portConstraint=eastwest;sketch=1;curveFitting=1;jiggle=2;" parent="YT2RuRJ8nAbgr_poYTAT-127" vertex="1">
                    <mxGeometry y="186.11111111111111" width="317" height="31" as="geometry"/>
                </mxCell>
                <mxCell id="YT2RuRJ8nAbgr_poYTAT-134" style="line;strokeWidth=1;fillColor=none;align=left;verticalAlign=middle;spacingTop=-1;spacingLeft=3;spacingRight=3;rotatable=0;labelPosition=right;points=[];portConstraint=eastwest;strokeColor=inherit;sketch=1;curveFitting=1;jiggle=2;" parent="YT2RuRJ8nAbgr_poYTAT-127" vertex="1">
                    <mxGeometry y="217.11111111111111" width="317" height="8" as="geometry"/>
                </mxCell>
                <mxCell id="YT2RuRJ8nAbgr_poYTAT-135" value="+update(result:MatchResult) : :void" style="text;strokeColor=none;fillColor=none;align=left;verticalAlign=top;spacingLeft=4;spacingRight=4;overflow=hidden;rotatable=0;points=[[0,0.5],[1,0.5]];portConstraint=eastwest;sketch=1;curveFitting=1;jiggle=2;" parent="YT2RuRJ8nAbgr_poYTAT-127" vertex="1">
                    <mxGeometry y="225.11111111111111" width="317" height="31" as="geometry"/>
                </mxCell>
                <mxCell id="YT2RuRJ8nAbgr_poYTAT-136" value="+getPoints() : :int" style="text;strokeColor=none;fillColor=none;align=left;verticalAlign=top;spacingLeft=4;spacingRight=4;overflow=hidden;rotatable=0;points=[[0,0.5],[1,0.5]];portConstraint=eastwest;sketch=1;curveFitting=1;jiggle=2;" parent="YT2RuRJ8nAbgr_poYTAT-127" vertex="1">
                    <mxGeometry y="256.1111111111111" width="317" height="31" as="geometry"/>
                </mxCell>
                <mxCell id="YT2RuRJ8nAbgr_poYTAT-137" value="PlayerStats" style="swimlane;fontStyle=1;align=center;verticalAlign=top;childLayout=stackLayout;horizontal=1;startSize=34.666666666666664;horizontalStack=0;resizeParent=1;resizeParentMax=0;resizeLast=0;collapsible=0;marginBottom=0;sketch=1;curveFitting=1;jiggle=2;" parent="1" vertex="1">
                    <mxGeometry x="5207" y="732" width="261" height="217.66666666666666" as="geometry"/>
                </mxCell>
                <mxCell id="YT2RuRJ8nAbgr_poYTAT-138" value="-minutesPlayed:int" style="text;strokeColor=none;fillColor=none;align=left;verticalAlign=top;spacingLeft=4;spacingRight=4;overflow=hidden;rotatable=0;points=[[0,0.5],[1,0.5]];portConstraint=eastwest;sketch=1;curveFitting=1;jiggle=2;" parent="YT2RuRJ8nAbgr_poYTAT-137" vertex="1">
                    <mxGeometry y="34.666666666666664" width="261" height="35" as="geometry"/>
                </mxCell>
                <mxCell id="YT2RuRJ8nAbgr_poYTAT-139" value="-goals:int" style="text;strokeColor=none;fillColor=none;align=left;verticalAlign=top;spacingLeft=4;spacingRight=4;overflow=hidden;rotatable=0;points=[[0,0.5],[1,0.5]];portConstraint=eastwest;sketch=1;curveFitting=1;jiggle=2;" parent="YT2RuRJ8nAbgr_poYTAT-137" vertex="1">
                    <mxGeometry y="69.66666666666666" width="261" height="35" as="geometry"/>
                </mxCell>
                <mxCell id="YT2RuRJ8nAbgr_poYTAT-140" value="-assists:int" style="text;strokeColor=none;fillColor=none;align=left;verticalAlign=top;spacingLeft=4;spacingRight=4;overflow=hidden;rotatable=0;points=[[0,0.5],[1,0.5]];portConstraint=eastwest;sketch=1;curveFitting=1;jiggle=2;" parent="YT2RuRJ8nAbgr_poYTAT-137" vertex="1">
                    <mxGeometry y="104.66666666666666" width="261" height="35" as="geometry"/>
                </mxCell>
                <mxCell id="YT2RuRJ8nAbgr_poYTAT-141" value="-fouls:int" style="text;strokeColor=none;fillColor=none;align=left;verticalAlign=top;spacingLeft=4;spacingRight=4;overflow=hidden;rotatable=0;points=[[0,0.5],[1,0.5]];portConstraint=eastwest;sketch=1;curveFitting=1;jiggle=2;" parent="YT2RuRJ8nAbgr_poYTAT-137" vertex="1">
                    <mxGeometry y="139.66666666666666" width="261" height="35" as="geometry"/>
                </mxCell>
                <mxCell id="YT2RuRJ8nAbgr_poYTAT-142" style="line;strokeWidth=1;fillColor=none;align=left;verticalAlign=middle;spacingTop=-1;spacingLeft=3;spacingRight=3;rotatable=0;labelPosition=right;points=[];portConstraint=eastwest;strokeColor=inherit;sketch=1;curveFitting=1;jiggle=2;" parent="YT2RuRJ8nAbgr_poYTAT-137" vertex="1">
                    <mxGeometry y="174.66666666666666" width="261" height="8" as="geometry"/>
                </mxCell>
                <mxCell id="YT2RuRJ8nAbgr_poYTAT-143" value="+update(evt:IEvent) : :void" style="text;strokeColor=none;fillColor=none;align=left;verticalAlign=top;spacingLeft=4;spacingRight=4;overflow=hidden;rotatable=0;points=[[0,0.5],[1,0.5]];portConstraint=eastwest;sketch=1;curveFitting=1;jiggle=2;" parent="YT2RuRJ8nAbgr_poYTAT-137" vertex="1">
                    <mxGeometry y="182.66666666666666" width="261" height="35" as="geometry"/>
                </mxCell>
                <mxCell id="YT2RuRJ8nAbgr_poYTAT-144" value="DefaultMatchSimulatorStrategy" style="swimlane;fontStyle=1;align=center;verticalAlign=top;childLayout=stackLayout;horizontal=1;startSize=47.2;horizontalStack=0;resizeParent=1;resizeParentMax=0;resizeLast=0;collapsible=0;marginBottom=0;sketch=1;curveFitting=1;jiggle=2;" parent="1" vertex="1">
                    <mxGeometry x="954" y="65" width="524" height="102.2" as="geometry"/>
                </mxCell>
                <mxCell id="YT2RuRJ8nAbgr_poYTAT-145" style="line;strokeWidth=1;fillColor=none;align=left;verticalAlign=middle;spacingTop=-1;spacingLeft=3;spacingRight=3;rotatable=0;labelPosition=right;points=[];portConstraint=eastwest;strokeColor=inherit;sketch=1;curveFitting=1;jiggle=2;" parent="YT2RuRJ8nAbgr_poYTAT-144" vertex="1">
                    <mxGeometry y="47.2" width="524" height="8" as="geometry"/>
                </mxCell>
                <mxCell id="YT2RuRJ8nAbgr_poYTAT-146" value="+simulatePerMinute(m:IMatch, minute:int) : :IEvent[]" style="text;strokeColor=none;fillColor=none;align=left;verticalAlign=top;spacingLeft=4;spacingRight=4;overflow=hidden;rotatable=0;points=[[0,0.5],[1,0.5]];portConstraint=eastwest;sketch=1;curveFitting=1;jiggle=2;" parent="YT2RuRJ8nAbgr_poYTAT-144" vertex="1">
                    <mxGeometry y="55.2" width="524" height="47" as="geometry"/>
                </mxCell>
                <mxCell id="YT2RuRJ8nAbgr_poYTAT-147" value="DefensiveStrategy" style="swimlane;fontStyle=1;align=center;verticalAlign=top;childLayout=stackLayout;horizontal=1;startSize=47.2;horizontalStack=0;resizeParent=1;resizeParentMax=0;resizeLast=0;collapsible=0;marginBottom=0;sketch=1;curveFitting=1;jiggle=2;" parent="1" vertex="1">
                    <mxGeometry x="1528" y="65" width="475" height="102.2" as="geometry"/>
                </mxCell>
                <mxCell id="YT2RuRJ8nAbgr_poYTAT-148" style="line;strokeWidth=1;fillColor=none;align=left;verticalAlign=middle;spacingTop=-1;spacingLeft=3;spacingRight=3;rotatable=0;labelPosition=right;points=[];portConstraint=eastwest;strokeColor=inherit;sketch=1;curveFitting=1;jiggle=2;" parent="YT2RuRJ8nAbgr_poYTAT-147" vertex="1">
                    <mxGeometry y="47.2" width="475" height="8" as="geometry"/>
                </mxCell>
                <mxCell id="YT2RuRJ8nAbgr_poYTAT-149" value="+simulatePerMinute(m:IMatch, minute:int) : :IEvent[]" style="text;strokeColor=none;fillColor=none;align=left;verticalAlign=top;spacingLeft=4;spacingRight=4;overflow=hidden;rotatable=0;points=[[0,0.5],[1,0.5]];portConstraint=eastwest;sketch=1;curveFitting=1;jiggle=2;" parent="YT2RuRJ8nAbgr_poYTAT-147" vertex="1">
                    <mxGeometry y="55.2" width="475" height="47" as="geometry"/>
                </mxCell>
                <mxCell id="YT2RuRJ8nAbgr_poYTAT-150" value="ClubHtmlGenerator" style="swimlane;fontStyle=1;align=center;verticalAlign=top;childLayout=stackLayout;horizontal=1;startSize=47.2;horizontalStack=0;resizeParent=1;resizeParentMax=0;resizeLast=0;collapsible=0;marginBottom=0;sketch=1;curveFitting=1;jiggle=2;" parent="1" vertex="1">
                    <mxGeometry x="2882" y="65" width="293" height="102.2" as="geometry"/>
                </mxCell>
                <mxCell id="YT2RuRJ8nAbgr_poYTAT-151" style="line;strokeWidth=1;fillColor=none;align=left;verticalAlign=middle;spacingTop=-1;spacingLeft=3;spacingRight=3;rotatable=0;labelPosition=right;points=[];portConstraint=eastwest;strokeColor=inherit;sketch=1;curveFitting=1;jiggle=2;" parent="YT2RuRJ8nAbgr_poYTAT-150" vertex="1">
                    <mxGeometry y="47.2" width="293" height="8" as="geometry"/>
                </mxCell>
                <mxCell id="YT2RuRJ8nAbgr_poYTAT-152" value="+exportData(c:Club) : :void" style="text;strokeColor=none;fillColor=none;align=left;verticalAlign=top;spacingLeft=4;spacingRight=4;overflow=hidden;rotatable=0;points=[[0,0.5],[1,0.5]];portConstraint=eastwest;sketch=1;curveFitting=1;jiggle=2;" parent="YT2RuRJ8nAbgr_poYTAT-150" vertex="1">
                    <mxGeometry y="55.2" width="293" height="47" as="geometry"/>
                </mxCell>
                <mxCell id="YT2RuRJ8nAbgr_poYTAT-153" value="LeagueHtmlGenerator" style="swimlane;fontStyle=1;align=center;verticalAlign=top;childLayout=stackLayout;horizontal=1;startSize=47.2;horizontalStack=0;resizeParent=1;resizeParentMax=0;resizeLast=0;collapsible=0;marginBottom=0;sketch=1;curveFitting=1;jiggle=2;" parent="1" vertex="1">
                    <mxGeometry x="2053" y="65" width="319" height="102.2" as="geometry"/>
                </mxCell>
                <mxCell id="YT2RuRJ8nAbgr_poYTAT-154" style="line;strokeWidth=1;fillColor=none;align=left;verticalAlign=middle;spacingTop=-1;spacingLeft=3;spacingRight=3;rotatable=0;labelPosition=right;points=[];portConstraint=eastwest;strokeColor=inherit;sketch=1;curveFitting=1;jiggle=2;" parent="YT2RuRJ8nAbgr_poYTAT-153" vertex="1">
                    <mxGeometry y="47.2" width="319" height="8" as="geometry"/>
                </mxCell>
                <mxCell id="YT2RuRJ8nAbgr_poYTAT-155" value="+exportData(l:League) : :void" style="text;strokeColor=none;fillColor=none;align=left;verticalAlign=top;spacingLeft=4;spacingRight=4;overflow=hidden;rotatable=0;points=[[0,0.5],[1,0.5]];portConstraint=eastwest;sketch=1;curveFitting=1;jiggle=2;" parent="YT2RuRJ8nAbgr_poYTAT-153" vertex="1">
                    <mxGeometry y="55.2" width="319" height="47" as="geometry"/>
                </mxCell>
                <mxCell id="YT2RuRJ8nAbgr_poYTAT-156" value="MatchHtmlGenerator" style="swimlane;fontStyle=1;align=center;verticalAlign=top;childLayout=stackLayout;horizontal=1;startSize=47.2;horizontalStack=0;resizeParent=1;resizeParentMax=0;resizeLast=0;collapsible=0;marginBottom=0;sketch=1;curveFitting=1;jiggle=2;" parent="1" vertex="1">
                    <mxGeometry x="3406" y="65" width="315" height="102.2" as="geometry"/>
                </mxCell>
                <mxCell id="YT2RuRJ8nAbgr_poYTAT-157" style="line;strokeWidth=1;fillColor=none;align=left;verticalAlign=middle;spacingTop=-1;spacingLeft=3;spacingRight=3;rotatable=0;labelPosition=right;points=[];portConstraint=eastwest;strokeColor=inherit;sketch=1;curveFitting=1;jiggle=2;" parent="YT2RuRJ8nAbgr_poYTAT-156" vertex="1">
                    <mxGeometry y="47.2" width="315" height="8" as="geometry"/>
                </mxCell>
                <mxCell id="YT2RuRJ8nAbgr_poYTAT-158" value="+exportData(m:Match) : :void" style="text;strokeColor=none;fillColor=none;align=left;verticalAlign=top;spacingLeft=4;spacingRight=4;overflow=hidden;rotatable=0;points=[[0,0.5],[1,0.5]];portConstraint=eastwest;sketch=1;curveFitting=1;jiggle=2;" parent="YT2RuRJ8nAbgr_poYTAT-156" vertex="1">
                    <mxGeometry y="55.2" width="315" height="47" as="geometry"/>
                </mxCell>
                <mxCell id="YT2RuRJ8nAbgr_poYTAT-159" value="SeasonHtmlGenerator" style="swimlane;fontStyle=1;align=center;verticalAlign=top;childLayout=stackLayout;horizontal=1;startSize=47.2;horizontalStack=0;resizeParent=1;resizeParentMax=0;resizeLast=0;collapsible=0;marginBottom=0;sketch=1;curveFitting=1;jiggle=2;" parent="1" vertex="1">
                    <mxGeometry x="3906" y="65" width="318" height="102.2" as="geometry"/>
                </mxCell>
                <mxCell id="YT2RuRJ8nAbgr_poYTAT-160" style="line;strokeWidth=1;fillColor=none;align=left;verticalAlign=middle;spacingTop=-1;spacingLeft=3;spacingRight=3;rotatable=0;labelPosition=right;points=[];portConstraint=eastwest;strokeColor=inherit;sketch=1;curveFitting=1;jiggle=2;" parent="YT2RuRJ8nAbgr_poYTAT-159" vertex="1">
                    <mxGeometry y="47.2" width="318" height="8" as="geometry"/>
                </mxCell>
                <mxCell id="YT2RuRJ8nAbgr_poYTAT-161" value="+exportData(s:Season) : :void" style="text;strokeColor=none;fillColor=none;align=left;verticalAlign=top;spacingLeft=4;spacingRight=4;overflow=hidden;rotatable=0;points=[[0,0.5],[1,0.5]];portConstraint=eastwest;sketch=1;curveFitting=1;jiggle=2;" parent="YT2RuRJ8nAbgr_poYTAT-159" vertex="1">
                    <mxGeometry y="55.2" width="318" height="47" as="geometry"/>
                </mxCell>
                <mxCell id="YT2RuRJ8nAbgr_poYTAT-162" value="" style="curved=1;dashed=1;startArrow=none;endArrow=open;endSize=12;exitX=0.24;exitY=1;entryX=1;entryY=0.29;rounded=0;sketch=1;curveFitting=1;jiggle=2;" parent="1" source="YT2RuRJ8nAbgr_poYTAT-59" target="YT2RuRJ8nAbgr_poYTAT-84" edge="1">
                    <mxGeometry relative="1" as="geometry">
                        <Array as="points">
                            <mxPoint x="4407" y="261"/>
                        </Array>
                    </mxGeometry>
                </mxCell>
                <mxCell id="YT2RuRJ8nAbgr_poYTAT-163" value="" style="curved=1;dashed=1;startArrow=none;endArrow=open;endSize=12;exitX=1;exitY=0.96;entryX=0;entryY=0.14;rounded=0;sketch=1;curveFitting=1;jiggle=2;" parent="1" source="YT2RuRJ8nAbgr_poYTAT-59" target="YT2RuRJ8nAbgr_poYTAT-93" edge="1">
                    <mxGeometry relative="1" as="geometry">
                        <Array as="points">
                            <mxPoint x="4876" y="261"/>
                        </Array>
                    </mxGeometry>
                </mxCell>
                <mxCell id="YT2RuRJ8nAbgr_poYTAT-164" value="" style="curved=1;dashed=1;startArrow=none;endArrow=open;endSize=12;exitX=1;exitY=0.93;entryX=1;entryY=0.23;rounded=0;sketch=1;curveFitting=1;jiggle=2;" parent="1" source="YT2RuRJ8nAbgr_poYTAT-59" target="YT2RuRJ8nAbgr_poYTAT-64" edge="1">
                    <mxGeometry relative="1" as="geometry">
                        <Array as="points">
                            <mxPoint x="4896" y="261"/>
                        </Array>
                    </mxGeometry>
                </mxCell>
                <mxCell id="YT2RuRJ8nAbgr_poYTAT-165" value="" style="curved=1;dashed=1;startArrow=none;endArrow=block;endSize=16;endFill=0;exitX=0;exitY=0.71;entryX=0.5;entryY=0;rounded=0;sketch=1;curveFitting=1;jiggle=2;" parent="1" source="YT2RuRJ8nAbgr_poYTAT-64" target="YT2RuRJ8nAbgr_poYTAT-7" edge="1">
                    <mxGeometry relative="1" as="geometry">
                        <Array as="points">
                            <mxPoint x="4138" y="671"/>
                        </Array>
                    </mxGeometry>
                </mxCell>
                <mxCell id="YT2RuRJ8nAbgr_poYTAT-166" value="" style="curved=1;startArrow=none;endArrow=open;endSize=12;exitX=0.16;exitY=1;entryX=0.5;entryY=0;rounded=0;sketch=1;curveFitting=1;jiggle=2;" parent="1" source="YT2RuRJ8nAbgr_poYTAT-64" target="YT2RuRJ8nAbgr_poYTAT-4" edge="1">
                    <mxGeometry relative="1" as="geometry">
                        <Array as="points">
                            <mxPoint x="4438" y="671"/>
                        </Array>
                    </mxGeometry>
                </mxCell>
                <mxCell id="YT2RuRJ8nAbgr_poYTAT-167" value="" style="curved=1;startArrow=none;endArrow=open;endSize=12;exitX=0.89;exitY=1;entryX=0.5;entryY=0;rounded=0;sketch=1;curveFitting=1;jiggle=2;" parent="1" source="YT2RuRJ8nAbgr_poYTAT-64" target="YT2RuRJ8nAbgr_poYTAT-15" edge="1">
                    <mxGeometry relative="1" as="geometry">
                        <Array as="points">
                            <mxPoint x="4700" y="671"/>
                        </Array>
                    </mxGeometry>
                </mxCell>
                <mxCell id="YT2RuRJ8nAbgr_poYTAT-168" value="" style="curved=1;dashed=1;startArrow=none;endArrow=block;endSize=16;endFill=0;exitX=0.5;exitY=1;entryX=0.5;entryY=0;rounded=0;sketch=1;curveFitting=1;jiggle=2;" parent="1" source="YT2RuRJ8nAbgr_poYTAT-77" target="YT2RuRJ8nAbgr_poYTAT-1" edge="1">
                    <mxGeometry relative="1" as="geometry">
                        <Array as="points"/>
                    </mxGeometry>
                </mxCell>
                <mxCell id="YT2RuRJ8nAbgr_poYTAT-169" value="" style="curved=1;dashed=1;startArrow=none;endArrow=block;endSize=16;endFill=0;exitX=0;exitY=0.92;entryX=0.5;entryY=0;rounded=0;sketch=1;curveFitting=1;jiggle=2;" parent="1" source="YT2RuRJ8nAbgr_poYTAT-84" target="YT2RuRJ8nAbgr_poYTAT-34" edge="1">
                    <mxGeometry relative="1" as="geometry">
                        <Array as="points">
                            <mxPoint x="3480" y="671"/>
                        </Array>
                    </mxGeometry>
                </mxCell>
                <mxCell id="YT2RuRJ8nAbgr_poYTAT-170" value="" style="curved=1;dashed=1;startArrow=none;endArrow=block;endSize=16;endFill=0;exitX=0;exitY=0.99;entryX=0.5;entryY=0;rounded=0;sketch=1;curveFitting=1;jiggle=2;" parent="1" source="YT2RuRJ8nAbgr_poYTAT-93" target="YT2RuRJ8nAbgr_poYTAT-25" edge="1">
                    <mxGeometry relative="1" as="geometry">
                        <Array as="points">
                            <mxPoint x="5000" y="671"/>
                        </Array>
                    </mxGeometry>
                </mxCell>
                <mxCell id="YT2RuRJ8nAbgr_poYTAT-171" value="" style="curved=1;dashed=1;startArrow=none;endArrow=block;endSize=16;endFill=0;exitX=0.5;exitY=1;entryX=0.5;entryY=0;rounded=0;sketch=1;curveFitting=1;jiggle=2;" parent="1" source="YT2RuRJ8nAbgr_poYTAT-104" target="YT2RuRJ8nAbgr_poYTAT-38" edge="1">
                    <mxGeometry relative="1" as="geometry">
                        <Array as="points"/>
                    </mxGeometry>
                </mxCell>
                <mxCell id="YT2RuRJ8nAbgr_poYTAT-172" value="" style="curved=1;dashed=1;startArrow=none;endArrow=block;endSize=16;endFill=0;exitX=0.5;exitY=1;entryX=0.5;entryY=0;rounded=0;sketch=1;curveFitting=1;jiggle=2;" parent="1" source="YT2RuRJ8nAbgr_poYTAT-111" target="YT2RuRJ8nAbgr_poYTAT-42" edge="1">
                    <mxGeometry relative="1" as="geometry">
                        <Array as="points"/>
                    </mxGeometry>
                </mxCell>
                <mxCell id="YT2RuRJ8nAbgr_poYTAT-173" value="" style="curved=1;dashed=1;startArrow=none;endArrow=block;endSize=16;endFill=0;exitX=0.03;exitY=1;entryX=0.5;entryY=0;rounded=0;sketch=1;curveFitting=1;jiggle=2;" parent="1" source="YT2RuRJ8nAbgr_poYTAT-118" target="YT2RuRJ8nAbgr_poYTAT-19" edge="1">
                    <mxGeometry relative="1" as="geometry">
                        <Array as="points">
                            <mxPoint x="2453" y="671"/>
                        </Array>
                    </mxGeometry>
                </mxCell>
                <mxCell id="YT2RuRJ8nAbgr_poYTAT-174" value="" style="curved=1;dashed=1;startArrow=none;endArrow=block;endSize=16;endFill=0;exitX=0.5;exitY=1;entryX=0.48;entryY=0;rounded=0;sketch=1;curveFitting=1;jiggle=2;" parent="1" source="YT2RuRJ8nAbgr_poYTAT-144" target="YT2RuRJ8nAbgr_poYTAT-53" edge="1">
                    <mxGeometry relative="1" as="geometry">
                        <Array as="points">
                            <mxPoint x="1216" y="261"/>
                        </Array>
                    </mxGeometry>
                </mxCell>
                <mxCell id="YT2RuRJ8nAbgr_poYTAT-175" value="" style="curved=1;dashed=1;startArrow=none;endArrow=block;endSize=16;endFill=0;exitX=0.5;exitY=1;entryX=0.88;entryY=0;rounded=0;sketch=1;curveFitting=1;jiggle=2;" parent="1" source="YT2RuRJ8nAbgr_poYTAT-147" target="YT2RuRJ8nAbgr_poYTAT-53" edge="1">
                    <mxGeometry relative="1" as="geometry">
                        <Array as="points">
                            <mxPoint x="1765" y="261"/>
                        </Array>
                    </mxGeometry>
                </mxCell>
                <mxCell id="YT2RuRJ8nAbgr_poYTAT-176" value="" style="curved=1;dashed=1;startArrow=block;startSize=16;startFill=0;endArrow=none;exitX=0.5;exitY=1;entryX=0.5;entryY=0;rounded=0;sketch=1;curveFitting=1;jiggle=2;" parent="1" source="YT2RuRJ8nAbgr_poYTAT-45" target="YT2RuRJ8nAbgr_poYTAT-50" edge="1">
                    <mxGeometry relative="1" as="geometry">
                        <Array as="points"/>
                    </mxGeometry>
                </mxCell>
                <mxCell id="YT2RuRJ8nAbgr_poYTAT-177" value="" style="curved=1;startArrow=none;endArrow=open;endSize=12;exitX=0.32;exitY=1;entryX=0.5;entryY=0;rounded=0;sketch=1;curveFitting=1;jiggle=2;" parent="1" source="YT2RuRJ8nAbgr_poYTAT-118" target="YT2RuRJ8nAbgr_poYTAT-45" edge="1">
                    <mxGeometry relative="1" as="geometry">
                        <Array as="points">
                            <mxPoint x="2740" y="671"/>
                        </Array>
                    </mxGeometry>
                </mxCell>
                <mxCell id="YT2RuRJ8nAbgr_poYTAT-178" value="" style="curved=1;startArrow=none;endArrow=open;endSize=12;exitX=0.7;exitY=1;entryX=0.5;entryY=0;rounded=0;sketch=1;curveFitting=1;jiggle=2;" parent="1" source="YT2RuRJ8nAbgr_poYTAT-118" target="YT2RuRJ8nAbgr_poYTAT-111" edge="1">
                    <mxGeometry relative="1" as="geometry">
                        <Array as="points">
                            <mxPoint x="3115" y="671"/>
                        </Array>
                    </mxGeometry>
                </mxCell>
                <mxCell id="YT2RuRJ8nAbgr_poYTAT-179" value="" style="curved=1;startArrow=none;endArrow=open;endSize=12;exitX=0.52;exitY=1;entryX=0.5;entryY=0;rounded=0;sketch=1;curveFitting=1;jiggle=2;" parent="1" source="YT2RuRJ8nAbgr_poYTAT-84" target="YT2RuRJ8nAbgr_poYTAT-127" edge="1">
                    <mxGeometry relative="1" as="geometry">
                        <Array as="points">
                            <mxPoint x="3799" y="671"/>
                        </Array>
                    </mxGeometry>
                </mxCell>
                <mxCell id="YT2RuRJ8nAbgr_poYTAT-180" value="" style="curved=1;startArrow=none;endArrow=open;endSize=12;exitX=0.52;exitY=1;entryX=0.5;entryY=0;rounded=0;sketch=1;curveFitting=1;jiggle=2;" parent="1" source="YT2RuRJ8nAbgr_poYTAT-93" target="YT2RuRJ8nAbgr_poYTAT-137" edge="1">
                    <mxGeometry relative="1" as="geometry">
                        <Array as="points">
                            <mxPoint x="5337" y="671"/>
                        </Array>
                    </mxGeometry>
                </mxCell>
                <mxCell id="YT2RuRJ8nAbgr_poYTAT-181" value="" style="curved=1;dashed=1;startArrow=none;endArrow=block;endSize=16;endFill=0;exitX=0;exitY=0.83;entryX=0.71;entryY=0;rounded=0;sketch=1;curveFitting=1;jiggle=2;" parent="1" source="YT2RuRJ8nAbgr_poYTAT-150" target="YT2RuRJ8nAbgr_poYTAT-56" edge="1">
                    <mxGeometry relative="1" as="geometry">
                        <Array as="points">
                            <mxPoint x="2556" y="261"/>
                        </Array>
                    </mxGeometry>
                </mxCell>
                <mxCell id="YT2RuRJ8nAbgr_poYTAT-182" value="" style="curved=1;dashed=1;startArrow=none;endArrow=block;endSize=16;endFill=0;exitX=0.18;exitY=1;entryX=0.05;entryY=0;rounded=0;sketch=1;curveFitting=1;jiggle=2;" parent="1" source="YT2RuRJ8nAbgr_poYTAT-153" target="YT2RuRJ8nAbgr_poYTAT-56" edge="1">
                    <mxGeometry relative="1" as="geometry">
                        <Array as="points">
                            <mxPoint x="1999" y="261"/>
                        </Array>
                    </mxGeometry>
                </mxCell>
                <mxCell id="YT2RuRJ8nAbgr_poYTAT-183" value="" style="curved=1;dashed=1;startArrow=none;endArrow=block;endSize=16;endFill=0;exitX=0.31;exitY=1;entryX=1;entryY=0.3;rounded=0;sketch=1;curveFitting=1;jiggle=2;" parent="1" source="YT2RuRJ8nAbgr_poYTAT-156" target="YT2RuRJ8nAbgr_poYTAT-56" edge="1">
                    <mxGeometry relative="1" as="geometry">
                        <Array as="points">
                            <mxPoint x="3438" y="261"/>
                        </Array>
                    </mxGeometry>
                </mxCell>
                <mxCell id="YT2RuRJ8nAbgr_poYTAT-184" value="" style="curved=1;dashed=1;startArrow=none;endArrow=block;endSize=16;endFill=0;exitX=0.3;exitY=1;entryX=1;entryY=0.36;rounded=0;sketch=1;curveFitting=1;jiggle=2;" parent="1" source="YT2RuRJ8nAbgr_poYTAT-159" target="YT2RuRJ8nAbgr_poYTAT-56" edge="1">
                    <mxGeometry relative="1" as="geometry">
                        <Array as="points">
                            <mxPoint x="3933" y="261"/>
                        </Array>
                    </mxGeometry>
                </mxCell>
                <mxCell id="YT2RuRJ8nAbgr_poYTAT-185" value="" style="curved=1;startArrow=none;endArrow=open;endSize=12;exitX=0.89;exitY=1;entryX=0;entryY=0.25;rounded=0;sketch=1;curveFitting=1;jiggle=2;" parent="1" source="YT2RuRJ8nAbgr_poYTAT-150" target="YT2RuRJ8nAbgr_poYTAT-84" edge="1">
                    <mxGeometry relative="1" as="geometry">
                        <Array as="points">
                            <mxPoint x="3268" y="261"/>
                        </Array>
                    </mxGeometry>
                </mxCell>
                <mxCell id="YT2RuRJ8nAbgr_poYTAT-186" value="" style="curved=1;startArrow=none;endArrow=open;endSize=12;exitX=0.52;exitY=1;entryX=0.81;entryY=0;rounded=0;sketch=1;curveFitting=1;jiggle=2;" parent="1" source="YT2RuRJ8nAbgr_poYTAT-153" target="YT2RuRJ8nAbgr_poYTAT-77" edge="1">
                    <mxGeometry relative="1" as="geometry">
                        <Array as="points">
                            <mxPoint x="2224" y="261"/>
                        </Array>
                    </mxGeometry>
                </mxCell>
                <mxCell id="YT2RuRJ8nAbgr_poYTAT-187" value="" style="curved=1;startArrow=none;endArrow=open;endSize=12;exitX=0.58;exitY=1;entryX=1;entryY=0.14;rounded=0;sketch=1;curveFitting=1;jiggle=2;" parent="1" source="YT2RuRJ8nAbgr_poYTAT-156" target="YT2RuRJ8nAbgr_poYTAT-118" edge="1">
                    <mxGeometry relative="1" as="geometry">
                        <Array as="points">
                            <mxPoint x="3615" y="261"/>
                        </Array>
                    </mxGeometry>
                </mxCell>
                <mxCell id="YT2RuRJ8nAbgr_poYTAT-188" value="" style="curved=1;startArrow=none;endArrow=open;endSize=12;exitX=0.8;exitY=1;entryX=0;entryY=0.19;rounded=0;sketch=1;curveFitting=1;jiggle=2;" parent="1" source="YT2RuRJ8nAbgr_poYTAT-159" target="YT2RuRJ8nAbgr_poYTAT-64" edge="1">
                    <mxGeometry relative="1" as="geometry">
                        <Array as="points">
                            <mxPoint x="4266" y="261"/>
                        </Array>
                    </mxGeometry>
                </mxCell>
            </root>
        </mxGraphModel>
    </diagram>
</mxfile>